<?xml version="1.0" standalone="no"?>
<!DOCTYPE svg PUBLIC "-//W3C//DTD SVG 1.1//EN" "http://www.w3.org/Graphics/SVG/1.1/DTD/svg11.dtd" >
<svg>
<metadata>
Created by FontForge 20110222 at Mon Jul 16 20:50:29 2012
 By Stefan Warting
Copyright (c) 2005 by BV Fonts. All rights reserved.
</metadata>
<defs>
<font id="SpinCycleOT" horiz-adv-x="701" >
  <font-face 
    font-family="Spin Cycle OT"
    font-weight="400"
    font-stretch="normal"
    units-per-em="1000"
    panose-1="2 0 0 0 0 0 0 0 0 0"
    ascent="750"
    descent="-250"
    x-height="629"
    cap-height="633"
    bbox="1 -453 1341 748"
    underline-thickness="50"
    underline-position="-50"
    unicode-range="U+000D-FB02"
  />
<missing-glyph horiz-adv-x="533" 
d="M52 0v644h434v-644h-434zM77 618v-595h383v595h-383z" />
    <glyph glyph-name="fi" unicode="fi" horiz-adv-x="877" 
d="M624 474h-110c-25 0 -66 -27 -78 -59l-15 -42h88v-158h-147l-20 -52c-34 -93 -127 -163 -216 -163h-101v159h101c18 0 55 25 68 59l94 252c34 93 131 163 226 163h110v-159zM864 557c0 -56 -45 -101 -101 -101s-101 45 -101 101s45 101 101 101s101 -45 101 -101zM842 1
h-158v420h158v-420z" />
    <glyph glyph-name="fl" unicode="fl" horiz-adv-x="1177" 
d="M624 474h-110c-25 0 -66 -27 -78 -59l-15 -42h88v-158h-147l-20 -52c-34 -93 -127 -163 -216 -163h-101v159h101c18 0 55 25 68 59l94 252c34 93 131 163 226 163h110v-159zM840 633l145 -418c13 -35 28 -58 67 -58h100v-157h-100c-94 0 -184 75 -214 162l-164 471h166z
" />
    <glyph glyph-name=".notdef" horiz-adv-x="533" 
d="M52 0v644h434v-644h-434zM77 618v-595h383v595h-383z" />
    <glyph glyph-name=".null" horiz-adv-x="0" 
 />
    <glyph glyph-name="CR" unicode="&#xd;" horiz-adv-x="325" 
 />
    <glyph glyph-name="space" unicode=" " horiz-adv-x="325" 
 />
    <glyph glyph-name="exclam" unicode="!" horiz-adv-x="252" 
d="M227 632l-16 -410h-159l-16 410h191zM126 179c56 0 101 -45 101 -101c0 -55 -45 -101 -101 -101s-101 46 -101 101c0 56 45 101 101 101z" />
    <glyph glyph-name="quotedbl" unicode="&#x22;" horiz-adv-x="528" 
d="M41 317l-16 300h190l-16 -300h-158zM329 319l-16 299h190l-16 -299h-158z" />
    <glyph glyph-name="numbersign" unicode="#" horiz-adv-x="724" 
d="M657 617l-36 -100h78l-46 -127h-78l-54 -148h78l-46 -127h-78l-36 -99h-127l36 99h-127l-36 -99h-127l36 99h-69l46 127h69l54 148h-78l46 127h79l36 100h127l-37 -100h127l36 100h127zM394 242l54 148h-127l-54 -148h127z" />
    <glyph glyph-name="dollar" unicode="$" horiz-adv-x="438" 
d="M136 408c0 -10 0 -24 14 -24h138c69 0 125 -56 125 -125c0 -72 -46 -132 -122 -134v-119h-111v119h-119v111h227c8 0 14 7 14 14c0 10 1 23 -14 23h-138c-69 0 -125 57 -125 125c0 74 48 135 125 135h30v94h111v-94h87v-112h-228c-8 0 -14 -6 -14 -13z" />
    <glyph glyph-name="percent" unicode="%" horiz-adv-x="936" 
d="M710 400c110 0 201 -90 201 -201c0 -110 -91 -201 -201 -201h-278c-66 0 -125 40 -125 110c0 25 8 49 20 70l185 331c2 4 4 8 5 12c-4 2 -9 2 -13 2h-77v-90c0 -110 -90 -201 -201 -201s-201 91 -201 201c0 111 90 201 201 201h278c65 0 124 -39 124 -110
c0 -24 -7 -48 -19 -69l-185 -331c-2 -4 -5 -8 -5 -13c4 -1 9 -2 13 -2h77v90c0 111 90 201 201 201zM316 433v90h-90c-50 0 -90 -40 -90 -90c0 -49 40 -90 90 -90c49 0 90 41 90 90zM710 109c49 0 90 41 90 90c0 50 -41 90 -90 90c-50 0 -90 -40 -90 -90v-90h90z" />
    <glyph glyph-name="ampersand" unicode="&#x26;" 
d="M437 159c17 0 32 14 32 31v63c0 78 64 143 142 143h65v-159h-49v-47c0 -104 -85 -190 -190 -190h-222c-104 0 -190 86 -190 190c0 88 38 161 123 193l-33 26c-1 0 -6 7 -6 8c-21 27 -35 59 -35 94c0 79 68 122 141 122h333v-159h-258l73 -56c27 -22 48 -51 48 -87
c0 -61 -53 -94 -110 -94h-86c-17 0 -31 -15 -31 -32c0 -21 2 -46 31 -46h222z" />
    <glyph glyph-name="quotesingle" unicode="'" horiz-adv-x="240" 
d="M41 317l-16 300h190l-16 -300h-158z" />
    <glyph glyph-name="parenleft" unicode="(" horiz-adv-x="378" 
d="M25 316c0 182 144 336 328 337v-159c-97 0 -169 -83 -169 -178c0 -94 72 -177 169 -177v-159c-184 0 -328 154 -328 336z" />
    <glyph glyph-name="parenright" unicode=")" horiz-adv-x="378" 
d="M353 316c0 -182 -144 -336 -328 -336v159c97 0 169 83 169 177c0 95 -72 178 -169 178v159c184 -1 328 -155 328 -337z" />
    <glyph glyph-name="asterisk" unicode="*" 
d="M350 642c49 0 88 -37 88 -87c0 -3 0 -6 -1 -9l-15 -143l131 59c11 5 24 8 36 8c49 0 87 -41 87 -89c0 -42 -29 -76 -70 -85l-140 -29l96 -106c15 -16 23 -37 23 -59c0 -48 -41 -88 -89 -88c-31 0 -59 18 -74 45l-72 124l-71 -125c-15 -26 -44 -44 -75 -44
c-47 0 -89 40 -89 88c0 22 9 43 23 59l97 106l-141 29c-40 9 -69 43 -69 84c0 49 37 90 87 90c12 0 25 -3 36 -8l131 -59l-16 143v9c0 49 38 87 87 87z" />
    <glyph glyph-name="plus" unicode="+" horiz-adv-x="558" 
d="M358 570v-174h175v-159h-175v-174h-159v174h-174v159h174v174h159z" />
    <glyph glyph-name="comma" unicode="," horiz-adv-x="251" 
d="M126 187c68 0 100 -59 100 -121c0 -98 -55 -175 -142 -219l-16 22c21 19 67 66 67 95c0 14 -11 19 -23 22c-49 13 -87 46 -87 100c0 56 45 101 101 101z" />
    <glyph glyph-name="hyphen" unicode="-" horiz-adv-x="410" 
d="M25 396h360v-159h-360v159z" />
    <glyph glyph-name="period" unicode="." horiz-adv-x="252" 
d="M126 188c56 0 101 -46 101 -101c0 -56 -45 -101 -101 -101s-101 45 -101 101c0 55 45 101 101 101z" />
    <glyph glyph-name="slash" unicode="/" horiz-adv-x="441" 
d="M25 1l221 631h170l-223 -631h-168z" />
    <glyph glyph-name="zero" unicode="0" 
d="M351 647c183 0 325 -153 325 -334c0 -180 -142 -334 -325 -334s-326 154 -326 334c0 181 143 334 326 334zM351 137c96 0 168 83 168 176c0 94 -72 177 -168 177s-169 -83 -169 -177c0 -93 72 -176 169 -176z" />
    <glyph glyph-name="one" unicode="1" horiz-adv-x="532" 
d="M341 0l-150 418c-12 35 -27 58 -66 58h-100v157h99c95 0 184 -75 215 -162l168 -471h-166z" />
    <glyph glyph-name="two" unicode="2" horiz-adv-x="652" 
d="M437 633c105 0 190 -86 190 -191v-15c0 -104 -85 -190 -190 -190h-222c-10 0 -21 -1 -31 -5v-73h404v-159h-563v253c0 98 106 143 190 143h222c17 0 32 14 32 31c0 22 -3 47 -32 47h-372v159h372z" />
    <glyph glyph-name="three" unicode="3" horiz-adv-x="613" 
d="M397 633c105 0 191 -86 191 -191c0 -48 -7 -86 -36 -126c23 -32 36 -71 36 -111v-15c0 -104 -86 -190 -191 -190h-356v159h356c17 0 32 14 32 31c0 22 -3 47 -32 47h-158v159h158c17 0 32 14 32 31c0 22 -3 47 -32 47h-372v159h372z" />
    <glyph glyph-name="four" unicode="4" horiz-adv-x="689" 
d="M516 279h148v-158h-148v-121h-158v121h-189c-74 0 -144 42 -144 123c0 34 14 66 34 93l224 296h233v-354zM358 279v190l-143 -190h143z" />
    <glyph glyph-name="five" unicode="5" horiz-adv-x="652" 
d="M184 395h253c105 0 190 -85 190 -190v-15c0 -104 -85 -190 -190 -190h-372v159h372c17 0 32 14 32 31c0 22 -3 47 -32 47h-222c-84 0 -190 45 -190 143v253h523v-159h-364v-79z" />
    <glyph glyph-name="six" unicode="6" horiz-adv-x="652" 
d="M184 396h253c105 0 190 -86 190 -191v-15c0 -104 -85 -190 -190 -190h-222c-104 0 -190 86 -190 190v252c0 105 86 191 190 191h333v-159h-333c-17 0 -31 -15 -31 -32v-46zM469 190v15c0 17 -15 32 -32 32h-253v-47c0 -17 14 -31 31 -31h222c17 0 32 14 32 31z" />
    <glyph glyph-name="seven" unicode="7" horiz-adv-x="536" 
d="M358 633c82 0 153 -55 153 -141c0 -25 -7 -50 -17 -73l-195 -419h-175l220 474h-319v159h333z" />
    <glyph glyph-name="eight" unicode="8" horiz-adv-x="652" 
d="M437 633c105 0 190 -86 190 -191c0 -48 -7 -86 -36 -126c23 -32 36 -71 36 -111v-15c0 -104 -85 -190 -190 -190h-222c-104 0 -190 86 -190 190c0 49 7 86 36 126c-23 32 -36 72 -36 111v15c0 105 86 191 190 191h222zM184 442v-15c0 -17 14 -31 31 -31h222
c17 0 32 14 32 31v15c0 17 -15 32 -32 32h-222c-17 0 -31 -15 -31 -32zM469 190v15c0 17 -15 32 -32 32h-222c-17 0 -31 -15 -31 -32v-15c0 -17 14 -31 31 -31h222c17 0 32 14 32 31z" />
    <glyph glyph-name="nine" unicode="9" horiz-adv-x="652" 
d="M437 633c105 0 190 -86 190 -191v-252c0 -104 -85 -190 -190 -190h-333v159h333c17 0 32 14 32 31v47h-254c-104 0 -190 86 -190 190v15c0 105 86 191 190 191h222zM469 396v46c0 17 -15 32 -32 32h-222c-17 0 -31 -15 -31 -32v-15c0 -17 14 -31 31 -31h254z" />
    <glyph glyph-name="colon" unicode=":" horiz-adv-x="252" 
d="M126 188c56 0 101 -46 101 -101c0 -56 -45 -101 -101 -101s-101 45 -101 101c0 55 45 101 101 101zM126 521c56 0 101 -45 101 -101s-45 -101 -101 -101s-101 45 -101 101s45 101 101 101z" />
    <glyph glyph-name="semicolon" unicode=";" horiz-adv-x="260" 
d="M134 187c68 0 101 -59 101 -121c0 -98 -56 -175 -143 -219l-15 22c21 19 66 66 66 95c0 14 -11 19 -23 22c-49 13 -87 46 -87 100c0 56 46 101 101 101zM126 319c-56 0 -101 45 -101 101s45 101 101 101s101 -45 101 -101s-45 -101 -101 -101z" />
    <glyph glyph-name="less" unicode="&#x3c;" horiz-adv-x="534" 
d="M509 224v-170l-390 149c-49 18 -94 57 -94 113c0 57 43 95 92 115l392 155v-170c-69 -27 -141 -47 -212 -67c-33 -10 -66 -19 -98 -31c36 -14 75 -23 112 -33c66 -19 133 -37 198 -61z" />
    <glyph glyph-name="equal" unicode="=" horiz-adv-x="494" 
d="M25 352v159h444v-159h-444zM25 130v159h444v-159h-444z" />
    <glyph glyph-name="greater" unicode="&#x3e;" horiz-adv-x="534" 
d="M25 54v170c64 24 131 42 197 61c38 10 76 19 113 33c-32 12 -66 21 -99 31c-71 20 -142 40 -211 67v170l391 -155c50 -20 93 -58 93 -115c0 -56 -45 -95 -94 -113z" />
    <glyph glyph-name="question" unicode="?" horiz-adv-x="429" 
d="M306 101c0 -56 -45 -101 -101 -101s-101 45 -101 101s45 101 101 101s101 -45 101 -101zM252 640c82 0 152 -53 152 -139c0 -26 -7 -51 -18 -74l-93 -192h-176l120 247h-212v158h227z" />
    <glyph glyph-name="at" unicode="@" horiz-adv-x="671" 
d="M335 646c173 0 311 -143 311 -314c0 -124 -72 -235 -185 -287c-37 -17 -74 -34 -111 -50v131c-80 7 -139 77 -139 156c0 84 67 157 153 157h81c-28 30 -68 48 -110 48c-85 0 -151 -71 -151 -155v-329h-159v329c0 171 138 314 310 314zM368 240c25 0 45 20 45 45
c0 24 -20 45 -45 45c-24 0 -45 -21 -45 -45c0 -25 21 -45 45 -45z" />
    <glyph glyph-name="A" unicode="A" horiz-adv-x="652" 
d="M326 648c166 0 301 -141 301 -316v-332h-158v143h-285v-143h-159v332c0 175 135 316 301 316zM184 332v-31h285v31c0 87 -64 158 -143 158c-78 0 -142 -71 -142 -158z" />
    <glyph glyph-name="B" unicode="B" horiz-adv-x="652" 
d="M437 633c105 0 190 -86 190 -191c0 -48 -7 -86 -36 -126c23 -32 36 -71 36 -111v-15c0 -104 -85 -190 -190 -190h-412v633h412zM469 190c0 22 -3 47 -32 47h-158v159h158c17 0 32 14 32 31c0 22 -3 47 -32 47h-253v-315h253c17 0 32 14 32 31z" />
    <glyph glyph-name="C" unicode="C" horiz-adv-x="573" 
d="M25 316c0 175 135 317 301 317h222v-159h-222c-78 0 -142 -71 -142 -158s64 -157 142 -157h222v-159h-222c-166 0 -301 142 -301 316z" />
    <glyph glyph-name="D" unicode="D" horiz-adv-x="652" 
d="M25 633h301c166 0 301 -142 301 -317c0 -174 -135 -316 -301 -316h-301v633zM184 159h142c79 0 143 70 143 157s-64 158 -143 158h-142v-315z" />
    <glyph glyph-name="E" unicode="E" horiz-adv-x="613" 
d="M326 633h262v-159h-262c-53 0 -99 -33 -123 -78h266v-159h-266c24 -46 70 -78 123 -78h262v-159h-262c-172 0 -301 149 -301 316c0 168 129 317 301 317z" />
    <glyph glyph-name="F" unicode="F" horiz-adv-x="573" 
d="M548 474h-222c-84 0 -142 -78 -142 -158v-4h295v-159h-295v-153h-159v316c0 168 129 317 301 317h222v-159z" />
    <glyph glyph-name="G" unicode="G" horiz-adv-x="652" 
d="M326 633h301v-159h-301c-84 0 -142 -78 -142 -158s58 -157 142 -157h143v78h-148v159h306v-396h-301c-172 0 -301 149 -301 316c0 168 129 317 301 317z" />
    <glyph glyph-name="H" unicode="H" horiz-adv-x="614" 
d="M184 396h246v237h159v-633h-159v237h-246v-237h-159v633h159v-237z" />
    <glyph glyph-name="I" unicode="I" horiz-adv-x="257" 
d="M49 633h159v-633h-159v633z" />
    <glyph glyph-name="J" unicode="J" horiz-adv-x="517" 
d="M334 634h158v-375c0 -143 -116 -259 -258 -259h-209v159h209c55 0 100 45 100 100v375z" />
    <glyph glyph-name="K" unicode="K" horiz-adv-x="621" 
d="M15 -1v632h159v-632h-159zM396 334c13 -39 27 -78 41 -117c13 -36 28 -60 68 -60h101v-158h-101c-96 0 -186 76 -217 164l-74 212l194 256h198z" />
    <glyph glyph-name="L" unicode="L" horiz-adv-x="541" 
d="M184 633v-443c0 -17 14 -31 31 -31h301v-159h-301c-105 0 -190 85 -190 190v443h159z" />
    <glyph glyph-name="M" unicode="M" horiz-adv-x="925" 
d="M641 650c143 0 259 -116 259 -259v-391h-159v391c0 55 -45 100 -100 100s-99 -45 -99 -100v-391h-159v391c0 55 -45 100 -100 100s-99 -45 -99 -100v-391h-159v391c0 143 116 259 258 259c70 0 133 -28 179 -73c47 45 110 73 179 73z" />
    <glyph glyph-name="N" unicode="N" horiz-adv-x="648" 
d="M324 649c171 0 299 -148 299 -315v-334h-157v334c0 80 -58 157 -142 157s-142 -77 -142 -157v-334h-157v334c0 167 128 315 299 315z" />
    <glyph glyph-name="O" unicode="O" 
d="M351 647c183 0 325 -153 325 -334c0 -180 -142 -334 -325 -334s-326 154 -326 334c0 181 143 334 326 334zM351 137c96 0 168 83 168 176c0 94 -72 177 -168 177s-169 -83 -169 -177c0 -93 72 -176 169 -176z" />
    <glyph glyph-name="P" unicode="P" horiz-adv-x="638" 
d="M376 628c136 0 237 -116 237 -248s-101 -247 -237 -247h-194v-133h-157v628h351zM376 290c48 0 80 46 80 90s-32 91 -80 91h-194v-181h194z" />
    <glyph glyph-name="Q" unicode="Q" 
d="M351 647c183 0 325 -154 325 -334c0 -151 -100 -286 -246 -324c-12 -135 -97 -227 -237 -227v157c50 0 71 22 78 70c-146 38 -246 173 -246 324c0 180 143 334 326 334zM351 136c96 0 168 83 168 177c0 93 -72 176 -168 176s-169 -83 -169 -176c0 -94 73 -177 169 -177z
" />
    <glyph glyph-name="R" unicode="R" horiz-adv-x="631" 
d="M441 214c13 -31 30 -55 66 -55h100v-159h-100c-96 0 -187 76 -217 164l-73 206h197c27 0 44 28 44 52s-17 52 -44 52h-240v-474h-159v633h399c115 0 202 -98 202 -211c0 -102 -72 -194 -175 -208z" />
    <glyph glyph-name="S" unicode="S" horiz-adv-x="652" 
d="M184 443c0 -21 2 -46 31 -46h222c105 0 190 -86 190 -191v-14c0 -105 -85 -191 -190 -191h-364v159h364c17 0 32 14 32 32c0 21 -3 46 -32 46h-222c-104 0 -190 86 -190 191v14c0 105 86 191 190 191h365v-159h-365c-17 0 -31 -14 -31 -32z" />
    <glyph glyph-name="T" unicode="T" horiz-adv-x="491" 
d="M25 633h441v-157h-142v-476h-157v476h-142v157z" />
    <glyph glyph-name="U" unicode="U" horiz-adv-x="648" 
d="M324 143c84 0 142 77 142 156v330h157v-330c0 -166 -128 -314 -299 -314s-299 148 -299 314v330h157v-330c0 -79 58 -156 142 -156z" />
    <glyph glyph-name="V" unicode="V" horiz-adv-x="707" 
d="M357 224l156 408h169l-209 -551c-19 -49 -57 -94 -114 -94s-95 42 -115 92l-219 553h171z" />
    <glyph glyph-name="W" unicode="W" horiz-adv-x="925" 
d="M641 142c55 0 100 45 100 100v392h159v-392c0 -142 -116 -258 -259 -258c-66 0 -131 26 -179 72c-48 -46 -112 -72 -179 -72c-142 0 -258 116 -258 258v392h159v-392c0 -55 44 -100 99 -100s100 45 100 100v392h159v-392c0 -55 45 -100 99 -100z" />
    <glyph glyph-name="X" unicode="X" horiz-adv-x="631" 
d="M316 489c66 92 177 143 290 143v-158c-87 0 -188 -61 -188 -158s101 -157 188 -157v-159c-113 0 -224 51 -290 143c-67 -92 -178 -143 -291 -143v159c88 0 189 60 189 157s-101 158 -189 158v158c113 0 224 -51 291 -143z" />
    <glyph glyph-name="Y" unicode="Y" horiz-adv-x="642" 
d="M436 634h181l-137 -258c-34 -62 -66 -126 -102 -187l-5 -8l-24 -43c-44 -79 -144 -138 -234 -138h-90v159h90c31 0 70 23 89 47l-185 428h173l109 -253c47 83 91 168 135 253z" />
    <glyph glyph-name="Z" unicode="Z" horiz-adv-x="627" 
d="M602 518c0 -43 -25 -79 -56 -106l-294 -253h345v-159h-420c-72 0 -152 32 -152 115c0 42 25 78 56 105l294 254h-345v159h421c72 0 151 -32 151 -115z" />
    <glyph glyph-name="bracketleft" unicode="[" horiz-adv-x="294" 
d="M25 633h244v-159h-85v-315h85v-159h-244v633z" />
    <glyph glyph-name="backslash" unicode="\" horiz-adv-x="441" 
d="M195 632l221 -631h-168l-223 631h170z" />
    <glyph glyph-name="bracketright" unicode="]" horiz-adv-x="294" 
d="M25 633h244v-633h-244v159h86v315h-86v159z" />
    <glyph glyph-name="asciicircum" unicode="^" horiz-adv-x="534" 
d="M533 78h-170c-24 65 -42 132 -60 198c-11 37 -20 76 -34 112c-12 -32 -21 -65 -31 -98c-20 -71 -40 -143 -67 -212h-170l155 392c20 49 58 92 115 92c56 0 95 -45 113 -94z" />
    <glyph glyph-name="underscore" unicode="_" horiz-adv-x="505" 
d="M25 -294h540v-159h-540v159z" />
    <glyph glyph-name="grave" unicode="`" horiz-adv-x="227" 
d="M128 608l74 -66h-70l-107 66h103z" />
    <glyph glyph-name="a" unicode="a" horiz-adv-x="728" 
d="M215 237c-17 0 -31 -15 -31 -32c0 -21 2 -46 31 -46h222v-159h-222c-104 0 -190 86 -190 190v15c0 105 86 191 190 191h182c-13 40 -27 78 -75 78h-243v159h243c96 0 186 -77 217 -165l164 -468h-168l-83 237h-237z" />
    <glyph glyph-name="b" unicode="b" horiz-adv-x="652" 
d="M437 633c105 0 190 -86 190 -191c0 -48 -7 -86 -36 -126c23 -32 36 -71 36 -111v-15c0 -104 -85 -190 -190 -190h-412v633h412zM469 190c0 22 -3 47 -32 47h-158v159h158c17 0 32 14 32 31c0 22 -3 47 -32 47h-253v-315h253c17 0 32 14 32 31z" />
    <glyph glyph-name="c" unicode="c" horiz-adv-x="573" 
d="M16 316c0 175 135 317 301 317h222v-159h-222c-78 0 -142 -71 -142 -158s64 -157 142 -157h222v-159h-222c-166 0 -301 142 -301 316z" />
    <glyph glyph-name="d" unicode="d" horiz-adv-x="652" 
d="M25 633h301c166 0 301 -142 301 -317c0 -174 -135 -316 -301 -316h-301v633zM184 159h142c79 0 143 70 143 157s-64 158 -143 158h-142v-315z" />
    <glyph glyph-name="e" unicode="e" horiz-adv-x="680" 
d="M25 318c0 172 136 318 310 318h136c101 0 184 -83 184 -184v-29c0 -102 -83 -185 -184 -185h-210v159h210c14 0 26 12 26 26c0 20 5 55 -26 55h-136c-86 0 -151 -75 -151 -160c0 -84 65 -159 151 -159h299v-159h-299c-174 0 -310 146 -310 318z" />
    <glyph glyph-name="f" unicode="f" horiz-adv-x="649" 
d="M624 474h-110c-25 0 -66 -27 -78 -59l-15 -42h88v-158h-147l-20 -52c-34 -93 -127 -163 -216 -163h-101v159h101c18 0 55 25 68 59l94 252c34 93 131 163 226 163h110v-159z" />
    <glyph glyph-name="g" unicode="g" horiz-adv-x="652" 
d="M326 633h301v-159h-301c-84 0 -142 -78 -142 -158s58 -157 142 -157h143v78h-148v159h306v-396h-301c-172 0 -301 149 -301 316c0 168 129 317 301 317z" />
    <glyph glyph-name="h" unicode="h" horiz-adv-x="614" 
d="M184 396h246v237h159v-633h-159v237h-246v-237h-159v633h159v-237z" />
    <glyph glyph-name="i" unicode="i" horiz-adv-x="228" 
d="M215 557c0 -56 -45 -101 -101 -101s-101 45 -101 101s45 101 101 101s101 -45 101 -101zM193 1h-158v420h158v-420z" />
    <glyph glyph-name="j" unicode="j" horiz-adv-x="528" 
d="M191 215l146 418h166l-164 -471c-30 -87 -120 -162 -215 -162h-99v157h99c40 0 55 23 67 58z" />
    <glyph glyph-name="k" unicode="k" horiz-adv-x="633" 
d="M312 337c-2 -10 -4 -20 -4 -30c0 -116 203 -148 290 -148v-159h-17c-144 -3 -395 83 -397 260v-260h-159v633h159v-219l4 4l221 215h199l-197 -196c-33 -33 -67 -66 -99 -100z" />
    <glyph glyph-name="l" unicode="l" horiz-adv-x="528" 
d="M191 633l145 -418c13 -35 28 -58 67 -58h100v-157h-100c-94 0 -184 75 -214 162l-164 471h166z" />
    <glyph glyph-name="m" unicode="m" horiz-adv-x="925" 
d="M641 650c143 0 259 -116 259 -259v-391h-159v391c0 55 -45 100 -100 100s-99 -45 -99 -100v-391h-159v391c0 55 -45 100 -100 100s-99 -45 -99 -100v-391h-159v391c0 143 116 259 258 259c70 0 133 -28 179 -73c47 45 110 73 179 73z" />
    <glyph glyph-name="n" unicode="n" horiz-adv-x="648" 
d="M324 649c171 0 299 -148 299 -315v-334h-157v334c0 80 -58 157 -142 157s-142 -77 -142 -157v-334h-157v334c0 167 128 315 299 315z" />
    <glyph glyph-name="o" unicode="o" 
d="M351 647c183 0 325 -153 325 -334c0 -180 -142 -334 -325 -334s-326 154 -326 334c0 181 143 334 326 334zM351 137c96 0 168 83 168 176c0 94 -72 177 -168 177s-169 -83 -169 -177c0 -93 72 -176 169 -176z" />
    <glyph glyph-name="p" unicode="p" horiz-adv-x="638" 
d="M376 628c136 0 237 -116 237 -248s-101 -247 -237 -247h-194v-133h-157v628h351zM376 290c48 0 80 46 80 90s-32 91 -80 91h-194v-181h194z" />
    <glyph glyph-name="q" unicode="q" 
d="M351 647c183 0 325 -154 325 -334c0 -151 -100 -286 -246 -324c-12 -135 -97 -227 -237 -227v157c50 0 71 22 78 70c-146 38 -246 173 -246 324c0 180 143 334 326 334zM351 136c96 0 168 83 168 177c0 93 -72 176 -168 176s-169 -83 -169 -176c0 -94 73 -177 169 -177z
" />
    <glyph glyph-name="r" unicode="r" horiz-adv-x="528" 
d="M336 418l-145 -418h-166l164 471c30 87 120 162 214 162h100v-157h-100c-39 0 -54 -23 -67 -58z" />
    <glyph glyph-name="s" unicode="s" horiz-adv-x="645" 
d="M25 157h100c26 0 59 37 67 59l94 251c33 89 128 161 224 161h110v-157h-110c-30 0 -67 -32 -77 -59l-93 -251c-32 -85 -121 -161 -215 -161h-100v157z" />
    <glyph glyph-name="t" unicode="t" horiz-adv-x="528" 
d="M224 539h168v-159h-113l57 -165c13 -35 28 -58 67 -58h100v-157h-100c-94 0 -184 75 -214 162l-164 471h166z" />
    <glyph glyph-name="u" unicode="u" horiz-adv-x="648" 
d="M324 143c84 0 142 77 142 156v330h157v-330c0 -166 -128 -314 -299 -314s-299 148 -299 314v330h157v-330c0 -79 58 -156 142 -156z" />
    <glyph glyph-name="v" unicode="v" horiz-adv-x="707" 
d="M357 226l156 408h169l-209 -551c-19 -49 -57 -94 -114 -94s-95 42 -115 92l-219 553h171z" />
    <glyph glyph-name="w" unicode="w" horiz-adv-x="925" 
d="M641 142c55 0 100 45 100 100v392h159v-392c0 -142 -116 -258 -259 -258c-66 0 -131 26 -179 72c-48 -46 -112 -72 -179 -72c-142 0 -258 116 -258 258v392h159v-392c0 -55 44 -100 99 -100s100 45 100 100v392h159v-392c0 -55 44 -100 99 -100z" />
    <glyph glyph-name="x" unicode="x" horiz-adv-x="631" 
d="M316 489c66 92 177 143 290 143v-158c-87 0 -188 -61 -188 -158s101 -157 188 -157v-159c-113 0 -224 51 -290 143c-67 -92 -178 -143 -291 -143v159c88 0 189 60 189 157s-101 158 -189 158v158c113 0 224 -51 291 -143z" />
    <glyph glyph-name="y" unicode="y" horiz-adv-x="642" 
d="M436 633h181l-137 -257c-34 -62 -66 -126 -102 -187l-5 -8l-24 -43c-44 -79 -144 -138 -234 -138h-90v159h90c31 0 70 23 89 47l-185 427h173l109 -252c47 83 135 252 135 252z" />
    <glyph glyph-name="z" unicode="z" horiz-adv-x="627" 
d="M602 518c0 -43 -25 -79 -56 -106l-294 -253h345v-159h-420c-72 0 -152 32 -152 115c0 42 25 78 56 105l294 254h-345v159h421c72 0 151 -32 151 -115z" />
    <glyph glyph-name="braceleft" unicode="{" horiz-adv-x="386" 
d="M259 163h102v-159h-136c-68 0 -125 55 -125 123v91c0 13 -11 28 -26 28h-49v148h49c15 0 26 16 26 29v90c0 69 57 123 125 123h136v-158h-102v-315z" />
    <glyph glyph-name="bar" unicode="|" horiz-adv-x="209" 
d="M25 673h159v-713h-159v713z" />
    <glyph glyph-name="braceright" unicode="}" horiz-adv-x="386" 
d="M25 163h102v315h-102v158h136c68 0 125 -54 125 -123v-90c0 -13 11 -29 26 -29h49v-148h-49c-15 0 -26 -15 -26 -28v-91c0 -68 -57 -123 -125 -123h-136v159z" />
    <glyph glyph-name="asciitilde" unicode="~" horiz-adv-x="394" 
d="M309 376l60 -40c-28 -58 -63 -86 -105 -86c-22 0 -46 11 -75 31c-28 21 -48 32 -58 32c-14 0 -28 -13 -43 -38l-63 36c25 61 61 92 106 92c21 0 46 -11 76 -33c30 -21 49 -32 56 -32c17 0 32 12 46 38z" />
    <glyph glyph-name="uni00A0" unicode="&#xa0;" horiz-adv-x="0" 
 />
    <glyph glyph-name="exclamdown" unicode="&#xa1;" horiz-adv-x="252" 
d="M26 -23l16 395h158l16 -395h-190zM126 414c-56 0 -101 46 -101 102c0 55 45 101 101 101s101 -46 101 -101c0 -56 -45 -102 -101 -102z" />
    <glyph glyph-name="cent" unicode="&#xa2;" horiz-adv-x="374" 
d="M285 627v-93h64v-111h-134c-47 0 -79 -44 -79 -88s32 -88 79 -88h134v-111h-64v-130h-111v135c-89 20 -149 104 -149 194s60 174 149 194v98h111z" />
    <glyph glyph-name="sterling" unicode="&#xa3;" horiz-adv-x="649" 
d="M138 0h-12h-101v159h101c18 0 55 25 68 59l94 252c34 93 131 163 226 163h110v-159h-110c-25 0 -66 -27 -78 -59l-15 -42h88v-158h-147l-20 -52l-1 -4h241v-159h-444z" />
    <glyph glyph-name="yen" unicode="&#xa5;" horiz-adv-x="652" 
d="M326 396c85 0 143 77 143 157v80h158v-80c0 -133 -81 -257 -208 -300h109v-80h-123v-37h123v-80h-123v-54h-158v54h-123v80h123v37h-123v80h109c-127 43 -208 167 -208 300v80h159v-80c0 -80 58 -157 142 -157z" />
    <glyph glyph-name="brokenbar" unicode="&#xa6;" horiz-adv-x="209" 
d="M22 384v280h159v-280h-159zM28 -40v280h159v-280h-159z" />
    <glyph glyph-name="section" unicode="&#xa7;" horiz-adv-x="913" 
d="M620 563c44 40 101 65 158 65h110v-157h-110c-30 0 -67 -32 -77 -59l-93 -251c-32 -85 -121 -161 -215 -161h-100v84c-43 -49 -104 -84 -168 -84h-100v157h100c26 0 59 37 67 59l94 251c33 89 128 161 224 161h110v-65zM338 157h55c26 0 59 37 67 59l94 251l1 4h-45
c-30 0 -67 -32 -77 -59l-93 -251z" />
    <glyph glyph-name="dieresis" unicode="&#xa8;" horiz-adv-x="233" 
d="M63 622c21 0 38 -17 38 -38s-17 -38 -38 -38s-38 17 -38 38s17 38 38 38zM170 623c21 0 38 -17 38 -38s-17 -38 -38 -38s-38 17 -38 38s17 38 38 38z" />
    <glyph glyph-name="copyright" unicode="&#xa9;" horiz-adv-x="724" 
d="M362 664c186 0 337 -151 337 -337c0 -185 -151 -337 -337 -337s-337 151 -337 337s151 337 337 337zM362 70c142 0 258 115 258 257s-116 258 -258 258s-258 -116 -258 -258s116 -257 258 -257zM211 327c0 84 65 158 151 158h111v-79h-111c-42 0 -71 -39 -71 -79
s29 -79 71 -79h111v-79h-111c-86 0 -151 74 -151 158z" />
    <glyph glyph-name="ordfeminine" unicode="&#xaa;" horiz-adv-x="389" 
d="M120 417c-8 0 -16 -8 -16 -16c0 -11 2 -24 16 -24h111v-79h-111c-52 0 -95 43 -95 95v8c0 52 43 95 95 95h91c-7 20 -13 39 -37 39h-148v79h148c47 0 93 -38 108 -82l82 -234h-84l-41 119h-119z" />
    <glyph glyph-name="guillemotleft" unicode="&#xab;" horiz-adv-x="542" 
d="M257 633l-64 -231c-8 -27 -9 -57 -9 -86c0 -28 1 -58 9 -85l64 -231h-165l-52 188c-11 41 -15 86 -15 128c0 43 4 87 15 128l52 189h165zM517 633l-64 -231c-8 -27 -9 -57 -9 -86c0 -28 1 -58 9 -85l64 -231h-165l-52 188c-11 41 -15 86 -15 128c0 43 4 87 15 128l52 189
h165z" />
    <glyph glyph-name="logicalnot" unicode="&#xac;" horiz-adv-x="563" 
d="M347 239h-322v158h322c105 0 191 -85 191 -190v-141h-159v141c0 17 -15 32 -32 32z" />
    <glyph glyph-name="uni00AD" unicode="&#xad;" horiz-adv-x="410" 
d="M25 396h360v-159h-360v159z" />
    <glyph glyph-name="registered" unicode="&#xae;" horiz-adv-x="274" 
d="M137 633c62 0 112 -51 112 -113c0 -61 -50 -112 -112 -112s-112 51 -112 112c0 62 50 113 112 113zM137 424c53 0 97 43 97 96s-44 97 -97 97s-96 -44 -96 -97s43 -96 96 -96zM133 511c7 -25 40 -32 62 -32v-16c-39 0 -64 12 -78 48h-15v-47h-16v111h74
c17 0 31 -14 31 -30c0 -37 -31 -34 -58 -34zM102 527h58c8 0 15 7 15 15c0 9 -4 17 -15 17h-58v-32z" />
    <glyph glyph-name="macron" unicode="&#xaf;" horiz-adv-x="410" 
d="M64 678h269v-54h-269v54z" />
    <glyph glyph-name="degree" unicode="&#xb0;" horiz-adv-x="224" 
d="M112 664c48 0 87 -39 87 -86c0 -48 -39 -87 -87 -87s-87 39 -87 87c0 47 39 86 87 86zM112 538c21 0 39 18 39 40c0 21 -18 39 -39 39c-22 0 -39 -18 -39 -39c0 -22 17 -40 39 -40z" />
    <glyph glyph-name="plusminus" unicode="&#xb1;" 
d="M350 642c49 0 88 -37 88 -87c0 -3 0 -6 -1 -9l-15 -143l131 59c11 5 24 8 36 8c49 0 87 -41 87 -89c0 -42 -29 -76 -70 -85l-140 -29l96 -106c15 -16 23 -37 23 -59c0 -48 -41 -88 -89 -88c-31 0 -59 18 -74 45l-72 124l-71 -125c-15 -26 -44 -44 -75 -44
c-47 0 -89 40 -89 88c0 22 9 43 23 59l97 106l-141 29c-40 9 -69 43 -69 84c0 49 37 90 87 90c12 0 25 -3 36 -8l131 -59l-16 143v9c0 49 38 87 87 87z" />
    <glyph glyph-name="twosuperior" unicode="&#xb2;" horiz-adv-x="351" 
d="M231 629c52 0 95 -42 95 -95v-7c0 -53 -43 -95 -95 -95h-111c-5 0 -11 -1 -16 -3v-37h202v-79h-281v127c0 49 53 71 95 71h111c9 0 16 7 16 16c0 11 -2 23 -16 23h-186v79h186z" />
    <glyph glyph-name="threesuperior" unicode="&#xb3;" horiz-adv-x="331" 
d="M211 629c53 0 95 -42 95 -95c0 -24 -3 -43 -18 -63c12 -16 18 -35 18 -55v-8c0 -52 -42 -95 -95 -95h-178v79h178c9 0 16 8 16 16c0 11 -1 24 -16 24h-79v79h79c9 0 16 7 16 16c0 11 -1 23 -16 23h-186v79h186z" />
    <glyph glyph-name="acute" unicode="&#xb4;" horiz-adv-x="227" 
d="M25 542l74 66h103l-107 -66h-70z" />
    <glyph glyph-name="mu" unicode="&#xb5;" 
d="M350 642c49 0 88 -37 88 -87c0 -3 0 -6 -1 -9l-15 -143l131 59c11 5 24 8 36 8c49 0 87 -41 87 -89c0 -42 -29 -76 -70 -85l-140 -29l96 -106c15 -16 23 -37 23 -59c0 -48 -41 -88 -89 -88c-31 0 -59 18 -74 45l-72 124l-71 -125c-15 -26 -44 -44 -75 -44
c-47 0 -89 40 -89 88c0 22 9 43 23 59l97 106l-141 29c-40 9 -69 43 -69 84c0 49 37 90 87 90c12 0 25 -3 36 -8l131 -59l-16 143v9c0 49 38 87 87 87z" />
    <glyph glyph-name="paragraph" unicode="&#xb6;" horiz-adv-x="484" 
d="M264 633h195v-633h-159v133h-36c-136 0 -239 117 -239 250s103 250 239 250zM264 292h36v182h-36c-48 0 -80 -47 -80 -91s32 -91 80 -91z" />
    <glyph glyph-name="periodcentered" unicode="&#xb7;" horiz-adv-x="252" 
d="M126 406c56 0 101 -45 101 -101s-45 -101 -101 -101s-101 45 -101 101s45 101 101 101z" />
    <glyph glyph-name="cedilla" unicode="&#xb8;" horiz-adv-x="236" 
d="M106 11h51l-21 -52c45 -9 75 -50 75 -95c0 -51 -39 -97 -92 -97h-94l20 48h74c26 0 44 24 44 49c0 59 -58 49 -97 49z" />
    <glyph glyph-name="onesuperior" unicode="&#xb9;" horiz-adv-x="291" 
d="M183 313l-75 209c-6 18 -14 29 -33 29h-50v79h50c47 0 91 -38 107 -81l84 -236h-83z" />
    <glyph glyph-name="ordmasculine" unicode="&#xba;" horiz-adv-x="376" 
d="M188 620c91 0 163 -76 163 -167c0 -90 -72 -167 -163 -167c-92 0 -163 77 -163 167c0 91 71 167 163 167zM188 365c48 0 84 41 84 88s-36 88 -84 88s-84 -41 -84 -88s36 -88 84 -88z" />
    <glyph glyph-name="guillemotright" unicode="&#xbb;" horiz-adv-x="542" 
d="M349 402l-64 231h165l52 -189c11 -41 15 -85 15 -128c0 -42 -4 -87 -15 -128l-52 -188h-165l64 231c8 27 9 57 9 85c0 29 -1 59 -9 86zM89 402l-64 231h165l52 -189c11 -41 15 -85 15 -128c0 -42 -4 -87 -15 -128l-52 -188h-165l64 231c8 27 9 57 9 85c0 29 -1 59 -9 86z
" />
    <glyph glyph-name="onequarter" unicode="&#xbc;" horiz-adv-x="722" 
d="M183 255l-75 208c-6 18 -14 30 -33 30h-50v78h50c47 0 91 -38 107 -81l84 -235h-83zM623 140h74v-80h-74v-60h-79v60h-95c-37 0 -72 22 -72 62c0 17 7 33 18 47l111 147h117v-176zM544 140v94l-72 -94h72zM115 0l385 577h85l-386 -577h-84z" />
    <glyph glyph-name="onehalf" unicode="&#xbd;" horiz-adv-x="760" 
d="M183 255l-75 208c-6 18 -14 30 -33 30h-50v78h50c47 0 91 -38 107 -81l84 -235h-83zM640 316c52 0 95 -42 95 -95v-7c0 -53 -43 -96 -95 -96h-111c-5 0 -11 0 -16 -2v-37h202v-79h-281v126c0 49 53 72 95 72h111c8 0 16 7 16 16c0 10 -2 23 -16 23h-186v79h186zM115 0
l385 577h85l-386 -577h-84z" />
    <glyph glyph-name="threequarters" unicode="&#xbe;" horiz-adv-x="757" 
d="M658 140h74v-80h-74v-60h-79v60h-95c-37 0 -72 22 -72 62c0 17 7 33 18 47l111 147h117v-176zM579 140v94l-72 -94h72zM211 576c53 0 95 -42 95 -95c0 -24 -3 -43 -18 -63c12 -16 18 -36 18 -55v-8c0 -52 -42 -95 -95 -95h-178v79h178c9 0 16 8 16 16c0 11 -1 23 -16 23
h-79v80h79c9 0 16 7 16 16c0 11 -1 23 -16 23h-186v79h186zM150 0l385 577h85l-386 -577h-84z" />
    <glyph glyph-name="questiondown" unicode="&#xbf;" horiz-adv-x="429" 
d="M123 539c0 56 46 101 102 101c55 0 101 -45 101 -101c0 -55 -46 -101 -101 -101c-56 0 -102 46 -102 101zM177 0c-82 0 -152 53 -152 139c0 26 7 52 18 75l93 192h177l-120 -247h211v-159h-227z" />
    <glyph glyph-name="Agrave" unicode="&#xc0;" horiz-adv-x="652" 
d="M326 648c166 0 301 -141 301 -316v-332h-158v143h-285v-143h-159v332c0 175 135 316 301 316zM184 332v-31h285v31c0 87 -64 158 -143 158c-78 0 -142 -71 -142 -158zM308 747l74 -66h-70l-107 66h103z" />
    <glyph glyph-name="Aacute" unicode="&#xc1;" horiz-adv-x="652" 
d="M326 648c166 0 301 -141 301 -316v-332h-158v143h-285v-143h-159v332c0 175 135 316 301 316zM184 332v-31h285v31c0 87 -64 158 -143 158c-78 0 -142 -71 -142 -158zM274 679l74 66h103l-107 -66h-70z" />
    <glyph glyph-name="Acircumflex" unicode="&#xc2;" horiz-adv-x="652" 
d="M320 720c-12 -14 -20 -31 -32 -45h-54l49 57c9 10 24 13 37 13s28 -3 36 -14l48 -56h-54c-12 14 -19 31 -30 45zM326 648c166 0 301 -141 301 -316v-332h-158v143h-285v-143h-159v332c0 175 135 316 301 316zM184 332v-31h285v31c0 87 -64 158 -143 158
c-78 0 -142 -71 -142 -158z" />
    <glyph glyph-name="Atilde" unicode="&#xc3;" horiz-adv-x="652" 
d="M326 648c166 0 301 -141 301 -316v-332h-158v143h-285v-143h-159v332c0 175 135 316 301 316zM184 332v-31h285v31c0 87 -64 158 -143 158c-78 0 -142 -71 -142 -158zM377 734l27 -18c-13 -25 -28 -38 -47 -38c-9 0 -20 5 -33 14s-21 14 -26 14c-6 0 -12 -6 -19 -17
l-28 16c11 27 27 41 47 41c9 0 21 -5 34 -14c13 -10 22 -15 25 -15c7 0 14 6 20 17z" />
    <glyph glyph-name="Adieresis" unicode="&#xc4;" horiz-adv-x="652" 
d="M326 648c166 0 301 -141 301 -316v-332h-158v143h-285v-143h-159v332c0 175 135 316 301 316zM184 332v-31h285v31c0 87 -64 158 -143 158c-78 0 -142 -71 -142 -158zM273 745c21 0 38 -17 38 -38s-17 -38 -38 -38s-38 17 -38 38s17 38 38 38zM380 746
c21 0 38 -17 38 -38s-17 -38 -38 -38s-38 17 -38 38s17 38 38 38z" />
    <glyph glyph-name="Aring" unicode="&#xc5;" horiz-adv-x="652" 
d="M332 747c38 0 69 -31 69 -69c0 -14 -4 -27 -11 -38c135 -31 237 -157 237 -308v-332h-158v143h-285v-143h-159v332c0 155 106 284 246 311c-6 10 -9 22 -9 35c0 38 32 69 70 69zM184 332v-31h285v31c0 87 -64 158 -143 158c-78 0 -142 -71 -142 -158zM326 648
c5 0 10 0 15 -1c13 4 22 16 22 31c0 17 -14 31 -31 31s-32 -14 -32 -31c0 -14 9 -26 21 -30h5z" />
    <glyph glyph-name="AE" unicode="&#xc6;" horiz-adv-x="1060" 
d="M184 301h285v31c0 87 -64 158 -143 158c-78 0 -142 -71 -142 -158v-31zM774 633h261v-159h-261c-52 0 -98 -32 -123 -78h266v-159h-266c25 -47 71 -78 123 -78h261v-159h-261c-53 0 -103 15 -147 40v-40h-158v143h-285v-143h-159v332c0 175 135 316 301 316
c93 0 176 -44 231 -113c55 60 132 98 217 98z" />
    <glyph glyph-name="Ccedilla" unicode="&#xc7;" horiz-adv-x="573" 
d="M436 -143c0 -51 -40 -97 -92 -97h-94l20 48h74c26 0 44 24 44 49c0 59 -58 49 -97 49l38 94h-3c-166 0 -301 142 -301 316c0 175 135 317 301 317h222v-159h-222c-78 0 -142 -71 -142 -158s64 -157 142 -157h222v-159h-167l-20 -48c45 -9 75 -50 75 -95z" />
    <glyph glyph-name="Egrave" unicode="&#xc8;" horiz-adv-x="613" 
d="M326 633h262v-159h-262c-53 0 -99 -33 -123 -78h266v-159h-266c24 -46 70 -78 123 -78h262v-159h-262c-172 0 -301 149 -301 316c0 168 129 317 301 317zM428 740l74 -66h-70l-107 66h103z" />
    <glyph glyph-name="Eacute" unicode="&#xc9;" horiz-adv-x="613" 
d="M326 633h262v-159h-262c-53 0 -99 -33 -123 -78h266v-159h-266c24 -46 70 -78 123 -78h262v-159h-262c-172 0 -301 149 -301 316c0 168 129 317 301 317zM305 679l74 66h103l-107 -66h-70z" />
    <glyph glyph-name="Ecircumflex" unicode="&#xca;" horiz-adv-x="613" 
d="M326 633h262v-159h-262c-53 0 -99 -33 -123 -78h266v-159h-266c24 -46 70 -78 123 -78h262v-159h-262c-172 0 -301 149 -301 316c0 168 129 317 301 317zM366 718c-12 -14 -20 -31 -32 -45h-54l49 57c9 10 24 13 37 13s28 -3 36 -14l48 -56h-54c-12 14 -19 31 -30 45z
" />
    <glyph glyph-name="Edieresis" unicode="&#xcb;" horiz-adv-x="613" 
d="M326 633h262v-159h-262c-53 0 -99 -33 -123 -78h266v-159h-266c24 -46 70 -78 123 -78h262v-159h-262c-172 0 -301 149 -301 316c0 168 129 317 301 317zM334 743c21 0 38 -17 38 -38s-17 -38 -38 -38s-38 17 -38 38s17 38 38 38zM441 744c21 0 38 -17 38 -38
s-17 -38 -38 -38s-38 17 -38 38s17 38 38 38z" />
    <glyph glyph-name="Igrave" unicode="&#xcc;" horiz-adv-x="257" 
d="M49 633h159v-633h-159v633zM139 744l74 -66h-70l-107 66h103z" />
    <glyph glyph-name="Iacute" unicode="&#xcd;" horiz-adv-x="257" 
d="M49 633h159v-633h-159v633zM55 678l74 66h103l-107 -66h-70z" />
    <glyph glyph-name="Icircumflex" unicode="&#xce;" horiz-adv-x="257" 
d="M49 633h159v-633h-159v633zM130 721c-12 -14 -20 -31 -32 -45h-54l49 57c9 10 24 13 37 13s28 -3 36 -14l48 -56h-54c-12 14 -19 31 -30 45z" />
    <glyph glyph-name="Idieresis" unicode="&#xcf;" horiz-adv-x="257" 
d="M49 633h159v-633h-159v633zM78 747c21 0 38 -17 38 -38s-17 -38 -38 -38s-38 17 -38 38s17 38 38 38zM185 748c21 0 38 -17 38 -38s-17 -38 -38 -38s-38 17 -38 38s17 38 38 38z" />
    <glyph glyph-name="Eth" unicode="&#xd0;" horiz-adv-x="645" 
d="M221 239v-80h98c78 0 142 70 142 157s-64 158 -142 158h-98v-76h119v-159h-119zM25 398h38v235h256c166 0 301 -142 301 -317c0 -174 -135 -316 -301 -316h-256v239h-38v159z" />
    <glyph glyph-name="Ntilde" unicode="&#xd1;" horiz-adv-x="648" 
d="M324 649c171 0 299 -148 299 -315v-334h-157v334c0 80 -58 157 -142 157s-142 -77 -142 -157v-334h-157v334c0 167 128 315 299 315zM367 731l27 -18c-13 -25 -28 -38 -47 -38c-9 0 -20 5 -33 14s-21 14 -26 14c-6 0 -12 -6 -19 -17l-28 16c11 27 27 41 47 41
c9 0 21 -5 34 -14c13 -10 22 -15 25 -15c7 0 14 6 20 17z" />
    <glyph glyph-name="Ograve" unicode="&#xd2;" 
d="M351 647c183 0 325 -153 325 -334c0 -180 -142 -334 -325 -334s-326 154 -326 334c0 181 143 334 326 334zM351 137c96 0 168 83 168 176c0 94 -72 177 -168 177s-169 -83 -169 -177c0 -93 72 -176 169 -176zM340 748l74 -66h-70l-107 66h103z" />
    <glyph glyph-name="Oacute" unicode="&#xd3;" 
d="M351 647c183 0 325 -153 325 -334c0 -180 -142 -334 -325 -334s-326 154 -326 334c0 181 143 334 326 334zM351 137c96 0 168 83 168 176c0 94 -72 177 -168 177s-169 -83 -169 -177c0 -93 72 -176 169 -176zM288 680l74 66h103l-107 -66h-70z" />
    <glyph glyph-name="Ocircumflex" unicode="&#xd4;" 
d="M351 647c183 0 325 -153 325 -334c0 -180 -142 -334 -325 -334s-326 154 -326 334c0 181 143 334 326 334zM351 137c96 0 168 83 168 176c0 94 -72 177 -168 177s-169 -83 -169 -177c0 -93 72 -176 169 -176zM348 721c-12 -14 -20 -31 -32 -45h-54l49 57
c9 10 24 13 37 13s28 -3 36 -14l48 -56h-54c-12 14 -19 31 -30 45z" />
    <glyph glyph-name="Otilde" unicode="&#xd5;" 
d="M351 647c183 0 325 -153 325 -334c0 -180 -142 -334 -325 -334s-326 154 -326 334c0 181 143 334 326 334zM351 137c96 0 168 83 168 176c0 94 -72 177 -168 177s-169 -83 -169 -177c0 -93 72 -176 169 -176zM387 733l27 -18c-13 -25 -28 -38 -47 -38c-9 0 -20 5 -33 14
s-21 14 -26 14c-6 0 -12 -6 -19 -17l-28 16c11 27 27 41 47 41c9 0 21 -5 34 -14c13 -10 22 -15 25 -15c7 0 14 6 20 17z" />
    <glyph glyph-name="Odieresis" unicode="&#xd6;" 
d="M351 647c183 0 325 -153 325 -334c0 -180 -142 -334 -325 -334s-326 154 -326 334c0 181 143 334 326 334zM351 137c96 0 168 83 168 176c0 94 -72 177 -168 177s-169 -83 -169 -177c0 -93 72 -176 169 -176zM293 745c21 0 38 -17 38 -38s-17 -38 -38 -38s-38 17 -38 38
s17 38 38 38zM400 746c21 0 38 -17 38 -38s-17 -38 -38 -38s-38 17 -38 38s17 38 38 38z" />
    <glyph glyph-name="multiply" unicode="&#xd7;" horiz-adv-x="558" 
d="M155 552l124 -124l123 124l112 -112l-123 -124l123 -123l-112 -112l-123 123l-124 -123l-112 112l124 123l-124 124z" />
    <glyph glyph-name="Oslash" unicode="&#xd8;" 
d="M477 430l-103 -291c84 12 145 88 145 174c0 44 -16 85 -42 117zM225 196l103 292c-85 -12 -146 -89 -146 -175c0 -44 16 -86 43 -117zM157 1l12 35c-87 60 -144 163 -144 277c0 181 143 334 326 334c34 0 66 -5 97 -15h100l-15 -42c87 -61 143 -164 143 -277
c0 -180 -142 -334 -325 -334c-41 0 -80 8 -116 22h-78z" />
    <glyph glyph-name="Ugrave" unicode="&#xd9;" horiz-adv-x="648" 
d="M324 143c84 0 142 77 142 156v330h157v-330c0 -166 -128 -314 -299 -314s-299 148 -299 314v330h157v-330c0 -79 58 -156 142 -156zM331 748l74 -66h-70l-107 66h103z" />
    <glyph glyph-name="Uacute" unicode="&#xda;" horiz-adv-x="648" 
d="M324 143c84 0 142 77 142 156v330h157v-330c0 -166 -128 -314 -299 -314s-299 148 -299 314v330h157v-330c0 -79 58 -156 142 -156zM246 677l74 66h103l-107 -66h-70z" />
    <glyph glyph-name="Ucircumflex" unicode="&#xdb;" horiz-adv-x="648" 
d="M324 143c84 0 142 77 142 156v330h157v-330c0 -166 -128 -314 -299 -314s-299 148 -299 314v330h157v-330c0 -79 58 -156 142 -156zM329 718c-12 -14 -20 -31 -32 -45h-54l49 57c9 10 24 13 37 13s28 -3 36 -14l48 -56h-54c-12 14 -19 31 -30 45z" />
    <glyph glyph-name="Udieresis" unicode="&#xdc;" horiz-adv-x="648" 
d="M324 143c84 0 142 77 142 156v330h157v-330c0 -166 -128 -314 -299 -314s-299 148 -299 314v330h157v-330c0 -79 58 -156 142 -156zM263 743c21 0 38 -17 38 -38s-17 -38 -38 -38s-38 17 -38 38s17 38 38 38zM370 744c21 0 38 -17 38 -38s-17 -38 -38 -38s-38 17 -38 38
s17 38 38 38z" />
    <glyph glyph-name="Yacute" unicode="&#xdd;" horiz-adv-x="642" 
d="M436 634h181l-137 -258c-34 -62 -66 -126 -102 -187l-5 -8l-24 -43c-44 -79 -144 -138 -234 -138h-90v159h90c31 0 70 23 89 47l-185 428h173l109 -253c47 83 91 168 135 253zM225 652l74 66h103l-107 -66h-70z" />
    <glyph glyph-name="Thorn" unicode="&#xde;" horiz-adv-x="643" 
d="M184 566h195c136 0 239 -117 239 -250s-103 -249 -239 -249h-195v-67h-159v633h159v-67zM379 225c48 0 80 47 80 91c0 45 -32 91 -80 91h-195v-182h195z" />
    <glyph glyph-name="germandbls" unicode="&#xdf;" horiz-adv-x="652" 
d="M437 633c105 0 190 -86 190 -191c0 -48 -7 -86 -36 -126c23 -32 36 -71 36 -111v-15c0 -104 -85 -190 -190 -190h-158v159h158c17 0 32 14 32 31c0 22 -3 47 -32 47h-253v-237h-159v442c0 95 66 191 167 191h245zM184 396h253c17 0 32 14 32 31v15c0 17 -15 32 -32 32
h-242c-8 -6 -11 -22 -11 -32v-46z" />
    <glyph glyph-name="agrave" unicode="&#xe0;" horiz-adv-x="728" 
d="M215 237c-17 0 -31 -15 -31 -32c0 -21 2 -46 31 -46h222v-159h-222c-104 0 -190 86 -190 190v15c0 105 86 191 190 191h182c-13 40 -27 78 -75 78h-243v159h243c96 0 186 -77 217 -165l164 -468h-168l-83 237h-237zM198 747l74 -66h-70l-107 66h103z" />
    <glyph glyph-name="aacute" unicode="&#xe1;" horiz-adv-x="728" 
d="M215 237c-17 0 -31 -15 -31 -32c0 -21 2 -46 31 -46h222v-159h-222c-104 0 -190 86 -190 190v15c0 105 86 191 190 191h182c-13 40 -27 78 -75 78h-243v159h243c96 0 186 -77 217 -165l164 -468h-168l-83 237h-237zM178 679l74 66h103l-107 -66h-70z" />
    <glyph glyph-name="acircumflex" unicode="&#xe2;" horiz-adv-x="728" 
d="M215 237c-17 0 -31 -15 -31 -32c0 -21 2 -46 31 -46h222v-159h-222c-104 0 -190 86 -190 190v15c0 105 86 191 190 191h182c-13 40 -27 78 -75 78h-243v159h243c96 0 186 -77 217 -165l164 -468h-168l-83 237h-237zM212 720c-12 -14 -20 -31 -32 -45h-54l49 57
c9 10 24 13 37 13s28 -3 36 -14l48 -56h-54c-12 14 -19 31 -30 45z" />
    <glyph glyph-name="atilde" unicode="&#xe3;" horiz-adv-x="728" 
d="M215 237c-17 0 -31 -15 -31 -32c0 -21 2 -46 31 -46h222v-159h-222c-104 0 -190 86 -190 190v15c0 105 86 191 190 191h182c-13 40 -27 78 -75 78h-243v159h243c96 0 186 -77 217 -165l164 -468h-168l-83 237h-237zM253 731l27 -18c-13 -25 -28 -38 -47 -38
c-9 0 -20 5 -33 14s-21 14 -26 14c-6 0 -12 -6 -19 -17l-28 16c11 27 27 41 47 41c9 0 21 -5 34 -14c13 -10 22 -15 25 -15c7 0 14 6 20 17z" />
    <glyph glyph-name="adieresis" unicode="&#xe4;" horiz-adv-x="728" 
d="M215 237c-17 0 -31 -15 -31 -32c0 -21 2 -46 31 -46h222v-159h-222c-104 0 -190 86 -190 190v15c0 105 86 191 190 191h182c-13 40 -27 78 -75 78h-243v159h243c96 0 186 -77 217 -165l164 -468h-168l-83 237h-237zM148 744c21 0 38 -17 38 -38s-17 -38 -38 -38
s-38 17 -38 38s17 38 38 38zM255 745c21 0 38 -17 38 -38s-17 -38 -38 -38s-38 17 -38 38s17 38 38 38z" />
    <glyph glyph-name="aring" unicode="&#xe5;" horiz-adv-x="728" 
d="M222 734c38 0 69 -31 69 -69c0 -12 -3 -23 -8 -32h39c96 0 186 -77 217 -165l164 -468h-168l-83 237h-237c-17 0 -31 -15 -31 -32c0 -21 2 -46 31 -46h222v-159h-222c-104 0 -190 86 -190 190v15c0 105 86 191 190 191h182c-13 40 -27 78 -75 78h-243v159h80
c-5 9 -7 20 -7 32c0 38 32 69 70 69zM190 665c0 -17 12 -30 28 -32h8c15 2 27 15 27 32s-14 31 -31 31s-32 -14 -32 -31z" />
    <glyph glyph-name="ae" unicode="&#xe6;" horiz-adv-x="1100" 
d="M514 519c57 71 143 117 241 117h136c101 0 184 -83 184 -184v-29c0 -102 -83 -185 -184 -185h-210v159h210c13 0 25 12 25 26c0 20 5 55 -25 55h-136c-87 0 -152 -75 -152 -160c0 -84 65 -159 152 -159h299v-159h-299c-147 0 -266 104 -301 239h-2v-2h-237
c-17 0 -31 -15 -31 -32c0 -21 2 -46 31 -46h222v-159h-222c-104 0 -190 86 -190 190v15c0 105 86 191 190 191h182c-13 40 -27 78 -75 78h-295v159h295c77 0 150 -50 192 -114z" />
    <glyph glyph-name="ccedilla" unicode="&#xe7;" horiz-adv-x="573" 
d="M436 -143c0 -51 -40 -97 -92 -97h-94l20 48h74c26 0 44 24 44 49c0 59 -58 49 -97 49l38 94h-3c-166 0 -301 142 -301 316c0 175 135 317 301 317h222v-159h-222c-78 0 -142 -71 -142 -158s64 -157 142 -157h222v-159h-167l-20 -48c45 -9 75 -50 75 -95z" />
    <glyph glyph-name="egrave" unicode="&#xe8;" horiz-adv-x="680" 
d="M25 318c0 172 136 318 310 318h136c101 0 184 -83 184 -184v-29c0 -102 -83 -185 -184 -185h-210v159h210c14 0 26 12 26 26c0 20 5 55 -26 55h-136c-86 0 -151 -75 -151 -160c0 -84 65 -159 151 -159h299v-159h-299c-174 0 -310 146 -310 318zM368 744l74 -66h-70
l-107 66h103z" />
    <glyph glyph-name="eacute" unicode="&#xe9;" horiz-adv-x="680" 
d="M25 318c0 172 136 318 310 318h136c101 0 184 -83 184 -184v-29c0 -102 -83 -185 -184 -185h-210v159h210c14 0 26 12 26 26c0 20 5 55 -26 55h-136c-86 0 -151 -75 -151 -160c0 -84 65 -159 151 -159h299v-159h-299c-174 0 -310 146 -310 318zM325 679l74 66h103
l-107 -66h-70z" />
    <glyph glyph-name="ecircumflex" unicode="&#xea;" horiz-adv-x="680" 
d="M25 318c0 172 136 318 310 318h136c101 0 184 -83 184 -184v-29c0 -102 -83 -185 -184 -185h-210v159h210c14 0 26 12 26 26c0 20 5 55 -26 55h-136c-86 0 -151 -75 -151 -160c0 -84 65 -159 151 -159h299v-159h-299c-174 0 -310 146 -310 318zM389 717
c-12 -14 -20 -31 -32 -45h-54l49 57c9 10 24 13 37 13s28 -3 36 -14l48 -56h-54c-12 14 -19 31 -30 45z" />
    <glyph glyph-name="edieresis" unicode="&#xeb;" horiz-adv-x="680" 
d="M25 318c0 172 136 318 310 318h136c101 0 184 -83 184 -184v-29c0 -102 -83 -185 -184 -185h-210v159h210c14 0 26 12 26 26c0 20 5 55 -26 55h-136c-86 0 -151 -75 -151 -160c0 -84 65 -159 151 -159h299v-159h-299c-174 0 -310 146 -310 318zM343 745
c21 0 38 -17 38 -38s-17 -38 -38 -38s-38 17 -38 38s17 38 38 38zM450 746c21 0 38 -17 38 -38s-17 -38 -38 -38s-38 17 -38 38s17 38 38 38z" />
    <glyph glyph-name="igrave" unicode="&#xec;" horiz-adv-x="252" 
d="M205 1h-158v420h158v-420zM105 643l88 -174h-70l-121 174h103z" />
    <glyph glyph-name="iacute" unicode="&#xed;" horiz-adv-x="252" 
d="M205 1h-158v420h158v-420zM51 469l89 170h103l-122 -170h-70z" />
    <glyph glyph-name="icircumflex" unicode="&#xee;" horiz-adv-x="252" 
d="M205 1h-158v420h158v-420zM126 609c-12 -14 -20 -31 -32 -45h-54l49 57c9 10 24 13 37 13s28 -3 36 -14l48 -56h-54c-12 14 -19 31 -30 45z" />
    <glyph glyph-name="idieresis" unicode="&#xef;" horiz-adv-x="252" 
d="M205 1h-158v420h158v-420zM73 636c21 0 38 -17 38 -38s-17 -38 -38 -38s-38 17 -38 38s17 38 38 38zM180 637c21 0 38 -17 38 -38s-17 -38 -38 -38s-38 17 -38 38s17 38 38 38z" />
    <glyph glyph-name="eth" unicode="&#xf0;" horiz-adv-x="645" 
d="M221 239v-80h98c78 0 142 70 142 157s-64 158 -142 158h-98v-76h119v-159h-119zM25 398h38v235h256c166 0 301 -142 301 -317c0 -174 -135 -316 -301 -316h-256v239h-38v159z" />
    <glyph glyph-name="ntilde" unicode="&#xf1;" horiz-adv-x="648" 
d="M324 649c171 0 299 -148 299 -315v-334h-157v334c0 80 -58 157 -142 157s-142 -77 -142 -157v-334h-157v334c0 167 128 315 299 315zM367 733l27 -18c-13 -25 -28 -38 -47 -38c-9 0 -20 5 -33 14s-21 14 -26 14c-6 0 -12 -6 -19 -17l-28 16c11 27 27 41 47 41
c9 0 21 -5 34 -14c13 -10 22 -15 25 -15c7 0 14 6 20 17z" />
    <glyph glyph-name="ograve" unicode="&#xf2;" 
d="M351 647c183 0 325 -153 325 -334c0 -180 -142 -334 -325 -334s-326 154 -326 334c0 181 143 334 326 334zM351 137c96 0 168 83 168 176c0 94 -72 177 -168 177s-169 -83 -169 -177c0 -93 72 -176 169 -176zM318 747l74 -66h-70l-107 66h103z" />
    <glyph glyph-name="oacute" unicode="&#xf3;" 
d="M351 647c183 0 325 -153 325 -334c0 -180 -142 -334 -325 -334s-326 154 -326 334c0 181 143 334 326 334zM351 137c96 0 168 83 168 176c0 94 -72 177 -168 177s-169 -83 -169 -177c0 -93 72 -176 169 -176zM305 680l74 66h103l-107 -66h-70z" />
    <glyph glyph-name="ocircumflex" unicode="&#xf4;" 
d="M351 647c183 0 325 -153 325 -334c0 -180 -142 -334 -325 -334s-326 154 -326 334c0 181 143 334 326 334zM351 137c96 0 168 83 168 176c0 94 -72 177 -168 177s-169 -83 -169 -177c0 -93 72 -176 169 -176zM349 720c-12 -14 -20 -31 -32 -45h-54l49 57
c9 10 24 13 37 13s28 -3 36 -14l48 -56h-54c-12 14 -19 31 -30 45z" />
    <glyph glyph-name="otilde" unicode="&#xf5;" 
d="M351 647c183 0 325 -153 325 -334c0 -180 -142 -334 -325 -334s-326 154 -326 334c0 181 143 334 326 334zM351 137c96 0 168 83 168 176c0 94 -72 177 -168 177s-169 -83 -169 -177c0 -93 72 -176 169 -176zM397 732l27 -18c-13 -25 -28 -38 -47 -38c-9 0 -20 5 -33 14
s-21 14 -26 14c-6 0 -12 -6 -19 -17l-28 16c11 27 27 41 47 41c9 0 21 -5 34 -14c13 -10 22 -15 25 -15c7 0 14 6 20 17z" />
    <glyph glyph-name="odieresis" unicode="&#xf6;" 
d="M351 647c183 0 325 -153 325 -334c0 -180 -142 -334 -325 -334s-326 154 -326 334c0 181 143 334 326 334zM351 137c96 0 168 83 168 176c0 94 -72 177 -168 177s-169 -83 -169 -177c0 -93 72 -176 169 -176zM293 745c21 0 38 -17 38 -38s-17 -38 -38 -38s-38 17 -38 38
s17 38 38 38zM400 746c21 0 38 -17 38 -38s-17 -38 -38 -38s-38 17 -38 38s17 38 38 38z" />
    <glyph glyph-name="divide" unicode="&#xf7;" horiz-adv-x="410" 
d="M25 244h360v-79h-360v79zM205 143c28 0 50 -23 50 -50c0 -28 -22 -51 -50 -51s-51 23 -51 51c0 27 23 50 51 50zM205 371c28 0 50 -22 50 -50s-22 -51 -50 -51s-51 23 -51 51s23 50 51 50z" />
    <glyph glyph-name="oslash" unicode="&#xf8;" 
d="M477 430l-103 -291c84 12 145 88 145 174c0 44 -16 85 -42 117zM225 196l103 292c-85 -12 -146 -89 -146 -175c0 -44 16 -86 43 -117zM157 1l12 35c-87 60 -144 163 -144 277c0 181 143 334 326 334c34 0 66 -5 97 -15h100l-15 -42c87 -61 143 -164 143 -277
c0 -180 -142 -334 -325 -334c-41 0 -80 8 -116 22h-78z" />
    <glyph glyph-name="ugrave" unicode="&#xf9;" horiz-adv-x="648" 
d="M324 143c84 0 142 77 142 156v330h157v-330c0 -166 -128 -314 -299 -314s-299 148 -299 314v330h157v-330c0 -79 58 -156 142 -156zM328 746l74 -66h-70l-107 66h103z" />
    <glyph glyph-name="uacute" unicode="&#xfa;" horiz-adv-x="648" 
d="M324 143c84 0 142 77 142 156v330h157v-330c0 -166 -128 -314 -299 -314s-299 148 -299 314v330h157v-330c0 -79 58 -156 142 -156zM235 679l74 66h103l-107 -66h-70z" />
    <glyph glyph-name="ucircumflex" unicode="&#xfb;" horiz-adv-x="648" 
d="M324 143c84 0 142 77 142 156v330h157v-330c0 -166 -128 -314 -299 -314s-299 148 -299 314v330h157v-330c0 -79 58 -156 142 -156zM319 719c-12 -14 -20 -31 -32 -45h-54l49 57c9 10 24 13 37 13s28 -3 36 -14l48 -56h-54c-12 14 -19 31 -30 45z" />
    <glyph glyph-name="udieresis" unicode="&#xfc;" horiz-adv-x="648" 
d="M324 143c84 0 142 77 142 156v330h157v-330c0 -166 -128 -314 -299 -314s-299 148 -299 314v330h157v-330c0 -79 58 -156 142 -156zM273 747c21 0 38 -17 38 -38s-17 -38 -38 -38s-38 17 -38 38s17 38 38 38zM380 748c21 0 38 -17 38 -38s-17 -38 -38 -38s-38 17 -38 38
s17 38 38 38z" />
    <glyph glyph-name="yacute" unicode="&#xfd;" horiz-adv-x="642" 
d="M436 633h181l-137 -257c-34 -62 -66 -126 -102 -187l-5 -8l-24 -43c-44 -79 -144 -138 -234 -138h-90v159h90c31 0 70 23 89 47l-185 427h173l109 -252c47 83 135 252 135 252zM235 652l74 66h103l-107 -66h-70z" />
    <glyph glyph-name="thorn" unicode="&#xfe;" horiz-adv-x="643" 
d="M184 566h195c136 0 239 -117 239 -250s-103 -249 -239 -249h-195v-67h-159v633h159v-67zM379 225c48 0 80 47 80 91c0 45 -32 91 -80 91h-195v-182h195z" />
    <glyph glyph-name="ydieresis" unicode="&#xff;" horiz-adv-x="642" 
d="M436 633h181l-137 -257c-34 -62 -66 -126 -102 -187l-5 -8l-24 -43c-44 -79 -144 -138 -234 -138h-90v159h90c31 0 70 23 89 47l-185 427h173l109 -252c47 83 135 252 135 252zM253 732c21 0 38 -17 38 -38s-17 -38 -38 -38s-38 17 -38 38s17 38 38 38zM360 733
c21 0 38 -17 38 -38s-17 -38 -38 -38s-38 17 -38 38s17 38 38 38z" />
    <glyph glyph-name="dotlessi" unicode="&#x131;" horiz-adv-x="252" 
d="M205 1h-158v420h158v-420z" />
    <glyph glyph-name="Lslash" unicode="&#x141;" horiz-adv-x="541" 
d="M10 41l36 63c-13 26 -21 55 -21 86v443h159v-288l127 224h170l-236 -410h271v-159h-301c-44 0 -85 15 -118 41h-87z" />
    <glyph glyph-name="lslash" unicode="&#x142;" horiz-adv-x="541" 
d="M191 629l59 -168l61 108h170l-167 -291l22 -63c13 -35 28 -58 67 -58h100v-157h-100c-74 0 -145 46 -186 108l-39 -67h-168l137 240l-122 348h166z" />
    <glyph glyph-name="OE" unicode="&#x152;" horiz-adv-x="1106" 
d="M351 139c93 0 164 79 168 170v7c0 2 0 5 -1 7c-3 91 -74 169 -167 169c-96 0 -169 -83 -169 -176c0 -94 72 -177 169 -177zM820 633h261v-159h-261c-53 0 -99 -32 -123 -78h266v-159h-266c24 -47 70 -78 123 -78h261v-159h-261c-87 0 -166 39 -221 101
c-59 -72 -148 -119 -248 -119c-183 0 -326 153 -326 334c0 180 143 334 326 334c100 0 189 -47 248 -119c55 63 133 102 221 102zM518 316l1 -7v7c0 2 0 5 -1 7v-7z" />
    <glyph glyph-name="oe" unicode="&#x153;" horiz-adv-x="1173" 
d="M351 142c92 0 162 76 167 165c1 4 1 7 1 11s0 7 -1 11c-5 89 -75 165 -167 165c-96 0 -169 -82 -169 -176s72 -176 169 -176zM600 533c56 63 137 103 229 103h135c102 0 184 -83 184 -184v-29c0 -102 -82 -185 -184 -185h-210v159h210c14 0 26 12 26 26c0 20 5 55 -26 55
h-135c-87 0 -152 -75 -152 -160c0 -84 65 -159 152 -159h298v-159h-298c-92 0 -173 40 -229 103c-59 -72 -148 -119 -249 -119c-183 0 -326 153 -326 334s143 334 326 334c101 0 189 -47 249 -119zM518 329v-11v-11c1 4 1 7 1 11s0 7 -1 11z" />
    <glyph glyph-name="Scaron" unicode="&#x160;" horiz-adv-x="652" 
d="M184 443c0 -21 2 -46 31 -46h222c105 0 190 -86 190 -191v-14c0 -105 -85 -191 -190 -191h-364v159h364c17 0 32 14 32 32c0 21 -3 46 -32 46h-222c-104 0 -190 86 -190 191v14c0 105 86 191 190 191h365v-159h-365c-17 0 -31 -14 -31 -32zM319 679c11 14 18 31 30 45h54
l-48 -56c-8 -11 -23 -14 -36 -14s-28 3 -37 13l-49 57h54c12 -14 20 -31 32 -45z" />
    <glyph glyph-name="scaron" unicode="&#x161;" horiz-adv-x="645" 
d="M25 157h100c26 0 59 37 67 59l94 251c33 89 128 161 224 161h110v-157h-110c-30 0 -67 -32 -77 -59l-93 -251c-32 -85 -121 -161 -215 -161h-100v157zM519 679c11 14 18 31 30 45h54l-48 -56c-8 -11 -23 -14 -36 -14s-28 3 -37 13l-49 57h54c12 -14 20 -31 32 -45z" />
    <glyph glyph-name="Ydieresis" unicode="&#x178;" horiz-adv-x="642" 
d="M436 634h181l-137 -258c-34 -62 -66 -126 -102 -187l-5 -8l-24 -43c-44 -79 -144 -138 -234 -138h-90v159h90c31 0 70 23 89 47l-185 428h173l109 -253c47 83 91 168 135 253zM253 732c21 0 38 -17 38 -38s-17 -38 -38 -38s-38 17 -38 38s17 38 38 38zM360 733
c21 0 38 -17 38 -38s-17 -38 -38 -38s-38 17 -38 38s17 38 38 38z" />
    <glyph glyph-name="Zcaron" unicode="&#x17d;" horiz-adv-x="627" 
d="M602 518c0 -43 -25 -79 -56 -106l-294 -253h345v-159h-420c-72 0 -152 32 -152 115c0 42 25 78 56 105l294 254h-345v159h421c72 0 151 -32 151 -115zM289 679c11 14 18 31 30 45h54l-48 -56c-8 -11 -23 -14 -36 -14s-28 3 -37 13l-49 57h54c12 -14 20 -31 32 -45z" />
    <glyph glyph-name="zcaron" unicode="&#x17e;" horiz-adv-x="627" 
d="M602 518c0 -43 -25 -79 -56 -106l-294 -253h345v-159h-420c-72 0 -152 32 -152 115c0 42 25 78 56 105l294 254h-345v159h421c72 0 151 -32 151 -115zM279 679c11 14 18 31 30 45h54l-48 -56c-8 -11 -23 -14 -36 -14s-28 3 -37 13l-49 57h54c12 -14 20 -31 32 -45z" />
    <glyph glyph-name="florin" unicode="&#x192;" 
d="M350 642c49 0 88 -37 88 -87c0 -3 0 -6 -1 -9l-15 -143l131 59c11 5 24 8 36 8c49 0 87 -41 87 -89c0 -42 -29 -76 -70 -85l-140 -29l96 -106c15 -16 23 -37 23 -59c0 -48 -41 -88 -89 -88c-31 0 -59 18 -74 45l-72 124l-71 -125c-15 -26 -44 -44 -75 -44
c-47 0 -89 40 -89 88c0 22 9 43 23 59l97 106l-141 29c-40 9 -69 43 -69 84c0 49 37 90 87 90c12 0 25 -3 36 -8l131 -59l-16 143v9c0 49 38 87 87 87z" />
    <glyph glyph-name="circumflex" unicode="&#x2c6;" horiz-adv-x="315" 
d="M159 589c-12 -14 -20 -31 -32 -45h-54l49 57c9 10 24 13 37 13s28 -3 36 -14l48 -56h-54c-12 14 -19 31 -30 45z" />
    <glyph glyph-name="caron" unicode="&#x2c7;" horiz-adv-x="315" 
d="M159 569c11 14 18 31 30 45h54l-48 -56c-8 -11 -23 -14 -36 -14s-28 3 -37 13l-49 57h54c12 -14 20 -31 32 -45z" />
    <glyph glyph-name="breve" unicode="&#x2d8;" horiz-adv-x="191" 
d="M93 642c18 0 31 17 31 34v10h34v-10c0 -36 -28 -68 -65 -68s-65 32 -65 68v10h34v-10c0 -17 13 -34 31 -34z" />
    <glyph glyph-name="dotaccent" unicode="&#x2d9;" horiz-adv-x="128" 
d="M65 679c21 0 38 -17 38 -38s-17 -38 -38 -38s-38 17 -38 38s17 38 38 38z" />
    <glyph glyph-name="ring" unicode="&#x2da;" horiz-adv-x="224" 
d="M112 647c38 0 69 -31 69 -69c0 -39 -31 -70 -69 -70s-70 31 -70 70c0 38 32 69 70 69zM112 546c17 0 31 14 31 32c0 17 -14 31 -31 31s-32 -14 -32 -31c0 -18 15 -32 32 -32z" />
    <glyph glyph-name="ogonek" unicode="&#x2db;" horiz-adv-x="326" 
d="M148 30l59 -168c5 -15 12 -26 29 -26h44v-69h-44c-41 0 -81 33 -94 72l-67 191h73z" />
    <glyph glyph-name="tilde" unicode="&#x2dc;" horiz-adv-x="206" 
d="M157 603l27 -18c-13 -25 -28 -38 -47 -38c-9 0 -20 5 -33 14s-21 14 -26 14c-6 0 -12 -6 -19 -17l-28 16c11 27 27 41 47 41c9 0 21 -5 34 -14c13 -10 22 -15 25 -15c7 0 14 6 20 17z" />
    <glyph glyph-name="hungarumlaut" unicode="&#x2dd;" horiz-adv-x="399" 
d="M33 604l74 66h103l-107 -66h-70zM179 604l74 66h103l-107 -66h-70z" />
    <glyph glyph-name="Delta" unicode="&#x394;" 
d="M350 642c49 0 88 -37 88 -87c0 -3 0 -6 -1 -9l-15 -143l131 59c11 5 24 8 36 8c49 0 87 -41 87 -89c0 -42 -29 -76 -70 -85l-140 -29l96 -106c15 -16 23 -37 23 -59c0 -48 -41 -88 -89 -88c-31 0 -59 18 -74 45l-72 124l-71 -125c-15 -26 -44 -44 -75 -44
c-47 0 -89 40 -89 88c0 22 9 43 23 59l97 106l-141 29c-40 9 -69 43 -69 84c0 49 37 90 87 90c12 0 25 -3 36 -8l131 -59l-16 143v9c0 49 38 87 87 87z" />
    <glyph glyph-name="Omega" unicode="&#x3a9;" 
d="M350 642c49 0 88 -37 88 -87c0 -3 0 -6 -1 -9l-15 -143l131 59c11 5 24 8 36 8c49 0 87 -41 87 -89c0 -42 -29 -76 -70 -85l-140 -29l96 -106c15 -16 23 -37 23 -59c0 -48 -41 -88 -89 -88c-31 0 -59 18 -74 45l-72 124l-71 -125c-15 -26 -44 -44 -75 -44
c-47 0 -89 40 -89 88c0 22 9 43 23 59l97 106l-141 29c-40 9 -69 43 -69 84c0 49 37 90 87 90c12 0 25 -3 36 -8l131 -59l-16 143v9c0 49 38 87 87 87z" />
    <glyph glyph-name="pi" unicode="&#x3c0;" 
d="M350 642c49 0 88 -37 88 -87c0 -3 0 -6 -1 -9l-15 -143l131 59c11 5 24 8 36 8c49 0 87 -41 87 -89c0 -42 -29 -76 -70 -85l-140 -29l96 -106c15 -16 23 -37 23 -59c0 -48 -41 -88 -89 -88c-31 0 -59 18 -74 45l-72 124l-71 -125c-15 -26 -44 -44 -75 -44
c-47 0 -89 40 -89 88c0 22 9 43 23 59l97 106l-141 29c-40 9 -69 43 -69 84c0 49 37 90 87 90c12 0 25 -3 36 -8l131 -59l-16 143v9c0 49 38 87 87 87z" />
    <glyph glyph-name="endash" unicode="&#x2013;" horiz-adv-x="455" 
d="M25 396h405v-159h-405v159z" />
    <glyph glyph-name="emdash" unicode="&#x2014;" horiz-adv-x="540" 
d="M23 396h494v-159h-494v159z" />
    <glyph glyph-name="quoteleft" unicode="&#x2018;" horiz-adv-x="251" 
d="M125 294c-68 0 -100 60 -100 121c0 99 55 175 142 220l16 -22c-21 -19 -67 -67 -67 -95c0 -15 11 -19 23 -23c49 -12 87 -46 87 -100c0 -55 -45 -101 -101 -101z" />
    <glyph glyph-name="quoteright" unicode="&#x2019;" horiz-adv-x="251" 
d="M126 635c68 0 100 -60 100 -121c0 -99 -55 -175 -142 -220l-16 22c21 19 67 67 67 95c0 15 -11 19 -23 22c-49 13 -87 47 -87 101c0 55 45 101 101 101z" />
    <glyph glyph-name="quotesinglbase" unicode="&#x201a;" horiz-adv-x="251" 
d="M126 187c68 0 100 -59 100 -121c0 -98 -55 -175 -142 -219l-16 22c21 19 67 66 67 95c0 14 -11 19 -23 22c-49 13 -87 46 -87 100c0 56 45 101 101 101z" />
    <glyph glyph-name="quotedblleft" unicode="&#x201c;" horiz-adv-x="475" 
d="M349 289c-68 0 -100 60 -100 121c0 98 55 175 142 219l16 -21c-21 -19 -67 -67 -67 -95c0 -15 11 -20 23 -23c49 -12 87 -46 87 -100c0 -56 -45 -101 -101 -101zM125 294c-68 0 -100 60 -100 121c0 99 55 175 142 220l16 -22c-21 -19 -67 -67 -67 -95
c0 -15 11 -19 23 -23c49 -12 87 -46 87 -100c0 -55 -45 -101 -101 -101z" />
    <glyph glyph-name="quotedblright" unicode="&#x201d;" horiz-adv-x="475" 
d="M126 635c68 0 100 -60 100 -121c0 -99 -55 -175 -142 -220l-16 22c21 19 67 67 67 95c0 15 -11 19 -23 22c-49 13 -87 47 -87 101c0 55 45 101 101 101zM350 629c68 0 100 -59 100 -120c0 -99 -55 -176 -142 -220l-16 22c21 19 67 66 67 95c0 15 -11 19 -23 22
c-49 13 -87 47 -87 100c0 56 45 101 101 101z" />
    <glyph glyph-name="quotedblbase" unicode="&#x201e;" horiz-adv-x="475" 
d="M126 187c68 0 100 -59 100 -121c0 -98 -55 -175 -142 -219l-16 22c21 19 67 66 67 95c0 14 -11 19 -23 22c-49 13 -87 46 -87 100c0 56 45 101 101 101zM350 182c68 0 100 -60 100 -121c0 -98 -55 -175 -142 -219l-16 21c21 19 67 67 67 95c0 15 -11 20 -23 23
c-49 12 -87 46 -87 100c0 56 45 101 101 101z" />
    <glyph glyph-name="dagger" unicode="&#x2020;" horiz-adv-x="410" 
d="M25 520h100v113h159v-113h101v-159h-101v-401h-159v401h-100v159z" />
    <glyph glyph-name="daggerdbl" unicode="&#x2021;" horiz-adv-x="410" 
d="M25 244h100v117h-100v159h100v113h159v-113h101v-159h-101v-117h101v-159h-101v-125h-159v125h-100v159z" />
    <glyph glyph-name="bullet" unicode="&#x2022;" horiz-adv-x="397" 
d="M199 466c83 0 151 -68 151 -152c0 -83 -68 -151 -151 -151c-84 0 -152 68 -152 151c0 84 68 152 152 152z" />
    <glyph glyph-name="ellipsis" unicode="&#x2026;" horiz-adv-x="746" 
d="M126 188c56 0 101 -46 101 -101c0 -56 -45 -101 -101 -101s-101 45 -101 101c0 55 45 101 101 101zM373 188c56 0 101 -45 101 -101s-45 -101 -101 -101s-101 45 -101 101s45 101 101 101zM620 188c56 0 101 -45 101 -101s-45 -101 -101 -101s-101 45 -101 101
s45 101 101 101z" />
    <glyph glyph-name="perthousand" unicode="&#x2030;" horiz-adv-x="1366" 
d="M1140 399c111 0 201 -91 201 -201c0 -111 -90 -201 -201 -201h-404v2c-9 -1 -18 -2 -26 -2h-278c-66 0 -125 39 -125 110c0 24 8 48 20 69l185 331c2 4 4 8 5 13c-4 1 -9 2 -14 2h-76v-90c0 -111 -90 -201 -201 -201s-201 90 -201 201c0 110 90 201 201 201h277
c66 0 125 -40 125 -110c0 -25 -7 -49 -19 -70l-185 -331c-2 -4 -5 -8 -5 -12c4 -2 9 -2 13 -2h77v90c0 110 90 201 201 201c110 0 201 -91 201 -201c0 -31 -8 -62 -22 -90h50v90c0 110 90 201 201 201zM316 432v90h-90c-50 0 -90 -41 -90 -90c0 -50 40 -90 90 -90
c49 0 90 40 90 90zM620 108h90c49 0 90 40 90 90c0 49 -41 90 -90 90c-50 0 -90 -41 -90 -90v-90zM1140 108c50 0 90 40 90 90c0 49 -40 90 -90 90c-49 0 -90 -41 -90 -90v-90h90z" />
    <glyph glyph-name="guilsinglleft" unicode="&#x2039;" horiz-adv-x="282" 
d="M257 633l-64 -231c-8 -27 -9 -57 -9 -86c0 -28 1 -58 9 -85l64 -231h-165l-52 188c-11 41 -15 86 -15 128c0 43 4 87 15 128l52 189h165z" />
    <glyph glyph-name="guilsinglright" unicode="&#x203a;" horiz-adv-x="282" 
d="M89 402l-64 231h165l52 -189c11 -41 15 -85 15 -128c0 -42 -4 -87 -15 -128l-52 -188h-165l64 231c8 27 9 57 9 85c0 29 -1 59 -9 86z" />
    <glyph glyph-name="fraction" unicode="&#x2044;" horiz-adv-x="500" 
d="M22 0l385 577h85l-386 -577h-84z" />
    <glyph glyph-name="Euro" unicode="&#x20ac;" horiz-adv-x="626" 
d="M25 212v79h54c0 9 -1 17 -1 25c0 6 0 11 1 17h-52v79h65c39 128 153 221 287 221h222v-159h-222c-46 0 -87 -24 -113 -62h205v-79h-233c-1 -5 -1 -11 -1 -17c0 -8 0 -16 2 -25h230v-79h-197c27 -33 65 -53 107 -53h222v-159h-222c-131 0 -243 89 -284 212h-70z" />
    <glyph glyph-name="trademark" unicode="&#x2122;" horiz-adv-x="448" 
d="M25 633h136v-16h-60v-146h-16v146h-60v16zM360 633c35 0 63 -29 63 -63v-102h-16v102c0 25 -21 47 -47 47s-47 -22 -47 -47v-102h-16v102c0 25 -21 47 -47 47s-47 -22 -47 -47v-102h-16v102c0 34 29 63 63 63c23 0 44 -13 55 -33c11 20 32 33 55 33z" />
    <glyph glyph-name="partialdiff" unicode="&#x2202;" 
d="M350 642c49 0 88 -37 88 -87c0 -3 0 -6 -1 -9l-15 -143l131 59c11 5 24 8 36 8c49 0 87 -41 87 -89c0 -42 -29 -76 -70 -85l-140 -29l96 -106c15 -16 23 -37 23 -59c0 -48 -41 -88 -89 -88c-31 0 -59 18 -74 45l-72 124l-71 -125c-15 -26 -44 -44 -75 -44
c-47 0 -89 40 -89 88c0 22 9 43 23 59l97 106l-141 29c-40 9 -69 43 -69 84c0 49 37 90 87 90c12 0 25 -3 36 -8l131 -59l-16 143v9c0 49 38 87 87 87z" />
    <glyph glyph-name="product" unicode="&#x220f;" 
d="M350 642c49 0 88 -37 88 -87c0 -3 0 -6 -1 -9l-15 -143l131 59c11 5 24 8 36 8c49 0 87 -41 87 -89c0 -42 -29 -76 -70 -85l-140 -29l96 -106c15 -16 23 -37 23 -59c0 -48 -41 -88 -89 -88c-31 0 -59 18 -74 45l-72 124l-71 -125c-15 -26 -44 -44 -75 -44
c-47 0 -89 40 -89 88c0 22 9 43 23 59l97 106l-141 29c-40 9 -69 43 -69 84c0 49 37 90 87 90c12 0 25 -3 36 -8l131 -59l-16 143v9c0 49 38 87 87 87z" />
    <glyph glyph-name="summation" unicode="&#x2211;" 
d="M350 642c49 0 88 -37 88 -87c0 -3 0 -6 -1 -9l-15 -143l131 59c11 5 24 8 36 8c49 0 87 -41 87 -89c0 -42 -29 -76 -70 -85l-140 -29l96 -106c15 -16 23 -37 23 -59c0 -48 -41 -88 -89 -88c-31 0 -59 18 -74 45l-72 124l-71 -125c-15 -26 -44 -44 -75 -44
c-47 0 -89 40 -89 88c0 22 9 43 23 59l97 106l-141 29c-40 9 -69 43 -69 84c0 49 37 90 87 90c12 0 25 -3 36 -8l131 -59l-16 143v9c0 49 38 87 87 87z" />
    <glyph glyph-name="minus" unicode="&#x2212;" horiz-adv-x="410" 
d="M25 396h360v-159h-360v159z" />
    <glyph glyph-name="radical" unicode="&#x221a;" 
d="M350 642c49 0 88 -37 88 -87c0 -3 0 -6 -1 -9l-15 -143l131 59c11 5 24 8 36 8c49 0 87 -41 87 -89c0 -42 -29 -76 -70 -85l-140 -29l96 -106c15 -16 23 -37 23 -59c0 -48 -41 -88 -89 -88c-31 0 -59 18 -74 45l-72 124l-71 -125c-15 -26 -44 -44 -75 -44
c-47 0 -89 40 -89 88c0 22 9 43 23 59l97 106l-141 29c-40 9 -69 43 -69 84c0 49 37 90 87 90c12 0 25 -3 36 -8l131 -59l-16 143v9c0 49 38 87 87 87z" />
    <glyph glyph-name="infinity" unicode="&#x221e;" 
d="M350 642c49 0 88 -37 88 -87c0 -3 0 -6 -1 -9l-15 -143l131 59c11 5 24 8 36 8c49 0 87 -41 87 -89c0 -42 -29 -76 -70 -85l-140 -29l96 -106c15 -16 23 -37 23 -59c0 -48 -41 -88 -89 -88c-31 0 -59 18 -74 45l-72 124l-71 -125c-15 -26 -44 -44 -75 -44
c-47 0 -89 40 -89 88c0 22 9 43 23 59l97 106l-141 29c-40 9 -69 43 -69 84c0 49 37 90 87 90c12 0 25 -3 36 -8l131 -59l-16 143v9c0 49 38 87 87 87z" />
    <glyph glyph-name="integral" unicode="&#x222b;" 
d="M350 642c49 0 88 -37 88 -87c0 -3 0 -6 -1 -9l-15 -143l131 59c11 5 24 8 36 8c49 0 87 -41 87 -89c0 -42 -29 -76 -70 -85l-140 -29l96 -106c15 -16 23 -37 23 -59c0 -48 -41 -88 -89 -88c-31 0 -59 18 -74 45l-72 124l-71 -125c-15 -26 -44 -44 -75 -44
c-47 0 -89 40 -89 88c0 22 9 43 23 59l97 106l-141 29c-40 9 -69 43 -69 84c0 49 37 90 87 90c12 0 25 -3 36 -8l131 -59l-16 143v9c0 49 38 87 87 87z" />
    <glyph glyph-name="approxequal" unicode="&#x2248;" 
d="M350 642c49 0 88 -37 88 -87c0 -3 0 -6 -1 -9l-15 -143l131 59c11 5 24 8 36 8c49 0 87 -41 87 -89c0 -42 -29 -76 -70 -85l-140 -29l96 -106c15 -16 23 -37 23 -59c0 -48 -41 -88 -89 -88c-31 0 -59 18 -74 45l-72 124l-71 -125c-15 -26 -44 -44 -75 -44
c-47 0 -89 40 -89 88c0 22 9 43 23 59l97 106l-141 29c-40 9 -69 43 -69 84c0 49 37 90 87 90c12 0 25 -3 36 -8l131 -59l-16 143v9c0 49 38 87 87 87z" />
    <glyph glyph-name="notequal" unicode="&#x2260;" 
d="M350 642c49 0 88 -37 88 -87c0 -3 0 -6 -1 -9l-15 -143l131 59c11 5 24 8 36 8c49 0 87 -41 87 -89c0 -42 -29 -76 -70 -85l-140 -29l96 -106c15 -16 23 -37 23 -59c0 -48 -41 -88 -89 -88c-31 0 -59 18 -74 45l-72 124l-71 -125c-15 -26 -44 -44 -75 -44
c-47 0 -89 40 -89 88c0 22 9 43 23 59l97 106l-141 29c-40 9 -69 43 -69 84c0 49 37 90 87 90c12 0 25 -3 36 -8l131 -59l-16 143v9c0 49 38 87 87 87z" />
    <glyph glyph-name="lessequal" unicode="&#x2264;" 
d="M350 642c49 0 88 -37 88 -87c0 -3 0 -6 -1 -9l-15 -143l131 59c11 5 24 8 36 8c49 0 87 -41 87 -89c0 -42 -29 -76 -70 -85l-140 -29l96 -106c15 -16 23 -37 23 -59c0 -48 -41 -88 -89 -88c-31 0 -59 18 -74 45l-72 124l-71 -125c-15 -26 -44 -44 -75 -44
c-47 0 -89 40 -89 88c0 22 9 43 23 59l97 106l-141 29c-40 9 -69 43 -69 84c0 49 37 90 87 90c12 0 25 -3 36 -8l131 -59l-16 143v9c0 49 38 87 87 87z" />
    <glyph glyph-name="greaterequal" unicode="&#x2265;" 
d="M350 642c49 0 88 -37 88 -87c0 -3 0 -6 -1 -9l-15 -143l131 59c11 5 24 8 36 8c49 0 87 -41 87 -89c0 -42 -29 -76 -70 -85l-140 -29l96 -106c15 -16 23 -37 23 -59c0 -48 -41 -88 -89 -88c-31 0 -59 18 -74 45l-72 124l-71 -125c-15 -26 -44 -44 -75 -44
c-47 0 -89 40 -89 88c0 22 9 43 23 59l97 106l-141 29c-40 9 -69 43 -69 84c0 49 37 90 87 90c12 0 25 -3 36 -8l131 -59l-16 143v9c0 49 38 87 87 87z" />
    <glyph glyph-name="lozenge" unicode="&#x25ca;" 
d="M350 642c49 0 88 -37 88 -87c0 -3 0 -6 -1 -9l-15 -143l131 59c11 5 24 8 36 8c49 0 87 -41 87 -89c0 -42 -29 -76 -70 -85l-140 -29l96 -106c15 -16 23 -37 23 -59c0 -48 -41 -88 -89 -88c-31 0 -59 18 -74 45l-72 124l-71 -125c-15 -26 -44 -44 -75 -44
c-47 0 -89 40 -89 88c0 22 9 43 23 59l97 106l-141 29c-40 9 -69 43 -69 84c0 49 37 90 87 90c12 0 25 -3 36 -8l131 -59l-16 143v9c0 49 38 87 87 87z" />
    <glyph glyph-name="apple" horiz-adv-x="657" 
d="M350 545c-7 0 -11 3 -11 8v9c0 38 15 72 45 103c28 28 60 47 99 55c0 -3 0 -7 1 -13v-14c0 -35 -14 -68 -41 -100s-58 -48 -93 -48zM618 481c-19 -11 -34 -24 -47 -39h-525c35 74 93 111 174 111c15 0 37 -5 64 -15c28 -10 47 -15 58 -15c10 0 29 5 56 15s49 15 64 15
c62 0 114 -24 156 -72zM556 423c-14 -21 -22 -45 -25 -70h-506c1 25 6 49 14 70h517zM111 85c-15 20 -28 42 -40 67h542c-13 -26 -25 -48 -37 -67h-465zM230 0c-33 0 -68 22 -105 66h438c-32 -44 -68 -66 -109 -66c-13 0 -32 5 -56 14c-24 10 -42 15 -55 15s-31 -5 -56 -14
c-25 -10 -44 -15 -57 -15zM549 260h-515c-5 25 -8 49 -9 74h505c1 -28 7 -53 19 -74zM562 241c17 -20 40 -37 70 -50l-10 -21h-559c-11 25 -20 49 -25 71h524z" />
    </font>
</defs>
</svg>
